<svg xmlns="http://www.w3.org/2000/svg" xmlns:xlink="http://www.w3.org/1999/xlink" width="71.25" height="60" viewBox="0 0 71.25 60">
  <defs>
    <style>
      .cls-1 {
        fill: url(#linear-gradient);
      }
    </style>
    <linearGradient id="linear-gradient" x1="0.066" y1="0.5" x2="1" y2="0.5" gradientUnits="objectBoundingBox">
      <stop offset="0" stop-color="#225895"/>
      <stop offset="0" stop-color="#1e528c"/>
      <stop offset="1" stop-color="#052751"/>
    </linearGradient>
  </defs>
  <path id="person-chalkboard-solid" class="cls-1" d="M45.124,5.625a5.625,5.625,0,1,1,5.625,5.625A5.626,5.626,0,0,1,45.124,5.625ZM46.061,60a3.746,3.746,0,0,1-3.75-3.75V30.105l-3.348,5.578a3.751,3.751,0,0,1-6.428-3.867l6.829-11.355A11.243,11.243,0,0,1,49,15H65.749V5.625A5.626,5.626,0,0,1,71.374,0h26.25a5.626,5.626,0,0,1,5.625,5.625v26.25A5.626,5.626,0,0,1,97.624,37.5H71.374a5.626,5.626,0,0,1-5.625-5.625V26.25h7.5V30h22.5V7.5h-22.5V15h1.875a3.75,3.75,0,0,1,0,7.5H59.186V56.25a3.75,3.75,0,0,1-7.5,0v-15H49.811v15A3.746,3.746,0,0,1,46.061,60Z" transform="translate(-31.999)"/>
</svg>
