<svg xmlns="http://www.w3.org/2000/svg" xmlns:xlink="http://www.w3.org/1999/xlink" width="75" height="60" viewBox="0 0 75 60">
  <defs>
    <style>
      .cls-1 {
        fill: url(#linear-gradient);
      }
    </style>
    <linearGradient id="linear-gradient" y1="0.5" x2="0.92" y2="0.5" gradientUnits="objectBoundingBox">
      <stop offset="0" stop-color="#052751"/>
      <stop offset="1" stop-color="#205692"/>
    </linearGradient>
  </defs>
  <path id="building-circle-exclamation-solid" class="cls-1" d="M39.375,0A5.626,5.626,0,0,1,45,5.625V27.211a20.633,20.633,0,0,0-1.254,30.7A5.591,5.591,0,0,1,39.375,60H28.125V50.625a5.625,5.625,0,0,0-11.25,0V60H5.625A5.626,5.626,0,0,1,0,54.375V5.625A5.625,5.625,0,0,1,5.625,0ZM7.5,31.875A1.877,1.877,0,0,0,9.375,33.75h3.75A1.881,1.881,0,0,0,15,31.875v-3.75a1.881,1.881,0,0,0-1.875-1.875H9.375A1.877,1.877,0,0,0,7.5,28.125ZM20.625,26.25a1.881,1.881,0,0,0-1.875,1.875v3.75a1.881,1.881,0,0,0,1.875,1.875h3.75a1.881,1.881,0,0,0,1.875-1.875v-3.75a1.881,1.881,0,0,0-1.875-1.875ZM30,31.875a1.881,1.881,0,0,0,1.875,1.875h3.75A1.881,1.881,0,0,0,37.5,31.875v-3.75a1.881,1.881,0,0,0-1.875-1.875h-3.75A1.881,1.881,0,0,0,30,28.125ZM9.375,11.25A1.877,1.877,0,0,0,7.5,13.125v3.75A1.877,1.877,0,0,0,9.375,18.75h3.75A1.881,1.881,0,0,0,15,16.875v-3.75a1.881,1.881,0,0,0-1.875-1.875Zm9.375,5.625a1.881,1.881,0,0,0,1.875,1.875h3.75a1.881,1.881,0,0,0,1.875-1.875v-3.75a1.881,1.881,0,0,0-1.875-1.875h-3.75a1.881,1.881,0,0,0-1.875,1.875ZM31.875,11.25A1.881,1.881,0,0,0,30,13.125v3.75a1.881,1.881,0,0,0,1.875,1.875h3.75A1.881,1.881,0,0,0,37.5,16.875v-3.75a1.881,1.881,0,0,0-1.875-1.875ZM41.25,43.125A16.875,16.875,0,1,1,58.125,60,16.879,16.879,0,0,1,41.25,43.125Zm16.875,11.25a2.813,2.813,0,1,0-2.812-2.812A2.806,2.806,0,0,0,58.125,54.375ZM56.145,33.75v9.375A1.953,1.953,0,0,0,58.02,45a1.816,1.816,0,0,0,1.875-1.875V33.75a1.816,1.816,0,0,0-1.875-1.875A1.953,1.953,0,0,0,56.145,33.75Z"/>
</svg>
