<svg xmlns="http://www.w3.org/2000/svg" xmlns:xlink="http://www.w3.org/1999/xlink" width="52.5" height="60" viewBox="0 0 52.5 60">
  <defs>
    <style>
      .cls-1 {
        fill: url(#linear-gradient);
      }
    </style>
    <linearGradient id="linear-gradient" y1="0.5" x2="1" y2="0.5" gradientUnits="objectBoundingBox">
      <stop offset="0" stop-color="#215793"/>
      <stop offset="1" stop-color="#042650"/>
    </linearGradient>
  </defs>
  <path id="database-solid" class="cls-1" d="M52.5,9.375V15c0,5.18-11.754,9.375-26.25,9.375S0,20.18,0,15V9.375C0,4.2,11.754,0,26.25,0S52.5,4.2,52.5,9.375ZM46.078,25.16A24.48,24.48,0,0,0,52.5,21.809V33.75c0,5.18-11.754,9.375-26.25,9.375S0,38.93,0,33.75V21.809A22.962,22.962,0,0,0,6.428,25.16,61.058,61.058,0,0,0,26.25,28.125,61.142,61.142,0,0,0,46.078,25.16ZM6.428,43.91A61.058,61.058,0,0,0,26.25,46.875,61.142,61.142,0,0,0,46.078,43.91,24.48,24.48,0,0,0,52.5,40.559V50.625C52.5,55.8,40.746,60,26.25,60S0,55.8,0,50.625V40.559A22.962,22.962,0,0,0,6.428,43.91Z"/>
</svg>
