<svg xmlns="http://www.w3.org/2000/svg" xmlns:xlink="http://www.w3.org/1999/xlink" width="75" height="60" viewBox="0 0 75 60">
  <defs>
    <style>
      .cls-1 {
        fill: url(#linear-gradient);
      }
    </style>
    <linearGradient id="linear-gradient" y1="0.5" x2="1" y2="0.5" gradientUnits="objectBoundingBox">
      <stop offset="0" stop-color="#215895"/>
      <stop offset="1" stop-color="#042650"/>
    </linearGradient>
  </defs>
  <path id="network-wired-solid" class="cls-1" d="M46.875,0A5.626,5.626,0,0,1,52.5,5.625v11.25A5.626,5.626,0,0,1,46.875,22.5H41.25v3.75h30a3.75,3.75,0,0,1,0,7.5H60V37.5h5.625a5.626,5.626,0,0,1,5.625,5.625v11.25A5.626,5.626,0,0,1,65.625,60H46.875a5.626,5.626,0,0,1-5.625-5.625V43.125A5.626,5.626,0,0,1,46.875,37.5H52.5V33.75h-30V37.5h5.625a5.626,5.626,0,0,1,5.625,5.625v11.25A5.626,5.626,0,0,1,28.125,60H9.375A5.626,5.626,0,0,1,3.75,54.375V43.125A5.626,5.626,0,0,1,9.375,37.5H15V33.75H3.75a3.75,3.75,0,0,1,0-7.5h30V22.5H28.125A5.626,5.626,0,0,1,22.5,16.875V5.625A5.626,5.626,0,0,1,28.125,0ZM30,7.5V15H45V7.5Zm-3.75,45V45h-15v7.5ZM48.75,45v7.5h15V45Z"/>
</svg>
