<svg xmlns="http://www.w3.org/2000/svg" xmlns:xlink="http://www.w3.org/1999/xlink" width="65.624" height="60" viewBox="0 0 65.624 60">
  <defs>
    <style>
      .cls-1 {
        fill: url(#linear-gradient);
      }
    </style>
    <linearGradient id="linear-gradient" x1="0.085" y1="0.5" x2="1" y2="0.5" gradientUnits="objectBoundingBox">
      <stop offset="0" stop-color="#215894"/>
      <stop offset="1" stop-color="#052750"/>
    </linearGradient>
  </defs>
  <path id="tent-arrows-down-solid" class="cls-1" d="M31.648,13.113a2.819,2.819,0,0,1-.2,3.973l-9.375,8.438a2.8,2.8,0,0,1-3.769,0L8.93,17.086a2.809,2.809,0,1,1,3.764-4.172l4.68,4.207V2.813a2.813,2.813,0,0,1,5.625,0V17.121l4.676-4.207a2.818,2.818,0,0,1,3.973.2Zm41.25,0a2.818,2.818,0,0,1-.2,3.973l-9.375,8.438a2.8,2.8,0,0,1-3.773,0l-9.375-8.437a2.813,2.813,0,1,1,3.773-4.172l4.676,4.207V2.813a2.813,2.813,0,0,1,5.625,0V17.121l4.676-4.207a2.818,2.818,0,0,1,3.973.2Zm-10.125,21.4a3.757,3.757,0,0,1,1.43,2.438L67.015,55.7a3.747,3.747,0,0,1-3.7,4.3H52.062L40.706,41.25V60H18.312A3.747,3.747,0,0,1,14.6,55.7l2.812-18.75a3.774,3.774,0,0,1,1.436-2.437l19.688-15a3.762,3.762,0,0,1,4.547,0Z" transform="translate(-7.999)"/>
</svg>
