<svg xmlns="http://www.w3.org/2000/svg" width="497.839" height="546.786" viewBox="0 0 497.839 546.786">
  <defs>
    <style>
      .cls-1 {
        fill: rgba(224,224,224,0.4);
      }

      .cls-2 {
        fill: #0a315f;
      }

      .cls-3 {
        fill: #455a64;
      }

      .cls-4 {
        fill: #407bff;
      }

      .cls-10, .cls-5, .cls-9 {
        fill: #fff;
      }

      .cls-5 {
        opacity: 0.4;
      }

      .cls-6 {
        opacity: 0.05;
      }

      .cls-10, .cls-11, .cls-7 {
        opacity: 0.2;
      }

      .cls-8 {
        opacity: 0.1;
      }

      .cls-12 {
        opacity: 0.8;
      }

      .cls-13 {
        fill: #37474f;
      }

      .cls-14 {
        fill: #263238;
      }

      .cls-15 {
        opacity: 0.3;
      }

      .cls-16 {
        opacity: 0.5;
      }

      .cls-17 {
        opacity: 0.7;
      }
    </style>
  </defs>
  <g id="Online_world-amico" data-name="Online world-amico" transform="translate(-69.315 -24.65)">
    <g id="freepik--Shadows--inject-1--inject-2" transform="translate(69.315 430.876)">
      <path id="freepik--Shadow--inject-1--inject-2" class="cls-1" d="M283.859,429.085H231.476a2.533,2.533,0,0,1-2.573-3.309l1.062-4.221a4.575,4.575,0,0,1,4.235-3.3h46.936a4.562,4.562,0,0,1,4.221,3.3l1.076,4.221a2.533,2.533,0,0,1-2.573,3.309Z" transform="translate(-11.646 -288.53)"/>
      <path id="freepik--shadow--inject-1--inject-2-2" data-name="freepik--shadow--inject-1--inject-2" class="cls-1" d="M176.32,396.557l-26.171,15.155a3.254,3.254,0,0,1-2.928,0L69.934,367.146a.885.885,0,0,1,0-1.688L96.119,350.3a3.254,3.254,0,0,1,2.928,0l77.3,44.567a.9.9,0,0,1-.027,1.688Z" transform="translate(-69.315 -313.232)"/>
      <path id="freepik--shadow--inject-1--inject-2-3" data-name="freepik--shadow--inject-1--inject-2" class="cls-2" d="M472.5,361.54,396.53,405.426a2.859,2.859,0,0,1-2.574,0l-63.793-36.764c-.722-.422-.722-1.076,0-1.484l75.966-43.886a2.859,2.859,0,0,1,2.574,0L472.5,360.056a.79.79,0,0,1,0,1.484Z" transform="translate(24.823 -322.985)"/>
      <path id="freepik--shadow--inject-1--inject-2-4" data-name="freepik--shadow--inject-1--inject-2" class="cls-1" d="M195.3,393.588l17.865-10.308a.694.694,0,0,0,0-1.362l-98.46-56.849a2.573,2.573,0,0,0-2.274,0L94.567,335.392c-.64.354-.64.953,0,1.362l98.447,56.835a2.506,2.506,0,0,0,2.288,0Z" transform="translate(-60.357 -322.327)"/>
    </g>
    <g id="freepik--World--inject-1--inject-2" transform="translate(69.54 24.65)">
      <g id="freepik--world--inject-1--inject-2-2" data-name="freepik--world--inject-1--inject-2" transform="translate(145.815 97.671)">
        <path id="Pfad_787" data-name="Pfad 787" class="cls-3" d="M371.749,160A101.211,101.211,0,1,1,300.535,98.98,101.211,101.211,0,0,1,371.749,160Z" transform="translate(-176.567 -96.381)"/>
        <path id="Pfad_788" data-name="Pfad 788" class="cls-4" d="M244.059,107.291c-4.63.082-10.566,1.716-6.264,4.344s7.04,2.887,7.081,6.291-2.192,7-1.1,9.423,2.9,5.242,4.67,4.425,6.577-6.2,9.327-5.95,12.119.667,13.48-2.4,2.723-2.859,4.984-6.264,2.124-7.938-.613-7.966-3.1,1.157-7.68.817-6.7-3.35-11.152-2.56S247.477,107.236,244.059,107.291Z" transform="translate(-154.963 -92.436)"/>
        <path id="Pfad_789" data-name="Pfad 789" class="cls-4" d="M247.792,108.542c-5.242,2.8-16.34,7.04-21.419,5.61-2.546-.722-5.569-1.729-8.8-2.328a101.456,101.456,0,0,0-39.147,59.109,33.484,33.484,0,0,0,4.575,7.081c4,4.7,8.17,5.3,13.222,6.277s3.486,3.84,5.978,6.808,3.568,4.739,6.413,6.345-1.008,4.616-2.124,7.9-1.443,5.12.9,11.765,9.123,12.064,11.138,14.638-1.362,5.569-.531,10.893.6,19.73,5.773,27.777,8.279,7.121,7.857,1.688-2.165-10.566.967-14.651,9.531-3,11.683-10.457,3.554-7.094,7.012-9.627,1.906-4.711,5.12-10.471,4.153-11.193-.6-13.616-7.884-2.124-11.969-7.734a52.314,52.314,0,0,0-16.34-14.229c-5.882-3.186-15.223.708-18.954-.381s-6.1-8.17-5.855-10.893-2.533-3.459-5.215-2.791-4.18-1.035-4.916-4.63,4.847-8.17,9.382-8.469,6.958,1.757,7.857,7.6a11.37,11.37,0,0,0,8.946,9.79c4.18,1.048,1.566-3.3-1.362-6.264s-3.173-5.678-.94-12.255,7.734-6.059,11.833-12.078,4.888-1.5,9.028-.9,3.527-1.634,5.052-5.447,6.808-.517,11.111-3.581-4.7-7.843-4.085-11.982,4.711-3.99,2.424-10.2.871-6.441,2.505-8.755S253.048,105.737,247.792,108.542Zm-6.127,15.141c-1.362,3.064-2.533,2.478-4.779,5.828a12.663,12.663,0,0,1-8.006,5.447c-2.26.272-5.978-3.745-6.168-6.236s3.391-3.227,7.448-3.745a22.739,22.739,0,0,0,11.22-5.188C244.293,117.556,243.04,120.634,241.665,123.684Z" transform="translate(-175.894 -92.476)"/>
        <path id="Pfad_790" data-name="Pfad 790" class="cls-4" d="M349.736,181.8v.286a7.149,7.149,0,0,0-4,3.976c-2.3,5.651-2.723,3.173-8.17,7.012s-3.336,6.808-3.05,10.689-5.964,8.17-9.055,9.531-4.466,10.131-3.445,14.393-4.085,5.991-7.217,9.872-4.9,10.389-6.944,13.507a9.531,9.531,0,0,1-9.436,4.371c-3.7-.626-7.135-6.808-9.123-12.064a30.882,30.882,0,0,1-1.525-16.952c1.157-5.773.749-5.052-.626-14.066a14.379,14.379,0,0,0-11.206-12.568c-3.486-.871-9.246,1.157-12.35-.654s-4.425-4.439-6.454-12.922,2.179-10.417,5.447-14.978a31.645,31.645,0,0,1,15.55-10.988,17.116,17.116,0,0,1,13.317,1.716c3.554,1.77,5.229,5.746,7.761,6.018s4.7-1.048,7.23-.558,4.235,1.729,6.7,1.362.9-3.254.545-4.82-2.587-1.171-5.555-1.2-3.7-.831-4.752-2.8-2.723-.231-4.18-1.035-1.157,2.819-1.28,4.221-1.212-1.076-1.212-1.076-1.225,1.92-1.757,1.035.694-3,.517-5.174-3.309-1.661-5.27-3.336a7.489,7.489,0,0,0-7.353-1.021c-2.723.885-3.159.245-4.344,2.6s-7,3.949-8.837,3.636-.545-4.085,1.035-7.353,4.834-2.206,6.808-5.542-.749-3.813-2.614-4.344-2.451-2.328-.5-6.577,4.534-3.077,5.61-1.117a6.55,6.55,0,0,0,5.923,2.968c2.492,0,1.906-1.729,1.852-5.447s1.62-5.583,4.929-6.972,8.837-3.636,10.893-5.624,5.869-.681,7.843,1.457,6.372,2.928,10.988,3.7a3.8,3.8,0,0,0,3.268-1.076A100.762,100.762,0,0,1,349.736,181.8Z" transform="translate(-147.624 -88.266)"/>
        <path id="Pfad_791" data-name="Pfad 791" class="cls-4" d="M312.925,201.679c-2.465-.422-2.247.395-3.69,2.328s-3.554,4.085-3.173,6.155.572,4.507,2.274,3.023,1.117-3.282,3.54-4.371S316.615,202.305,312.925,201.679Z" transform="translate(-129.753 -58.34)"/>
        <path id="Pfad_792" data-name="Pfad 792" class="cls-5" d="M286.452,106.034c-64.447-18.614-76.483,25.327-42.32,53.009s92.7,36.764,100.585,18.559S334.368,119.855,286.452,106.034Z" transform="translate(-158.876 -94.502)"/>
        <path id="Pfad_793" data-name="Pfad 793" class="cls-6" d="M250.343,246.956c-50.095-41.094-48.529-120.887-4.63-146.676h0c-1.852.626-3.7,1.28-5.542,2.015A101.2,101.2,0,1,0,371.121,235.328C356.973,254.895,300.4,287.969,250.343,246.956Z" transform="translate(-176.566 -94.971)"/>
      </g>
      <g id="freepik--Icons--inject-1--inject-2">
        <g id="freepik--Contact--inject-1--inject-2" transform="translate(449.642 102.875)">
          <path id="Pfad_794" data-name="Pfad 794" class="cls-4" d="M431.535,101.452c-3.377-1.961-8.047-1.675-13.194,1.294-10.294,5.95-18.641,20.425-18.641,32.3,0,5.964,2.1,10.158,5.447,12.091l6.563,3.813c3.377,1.947,8.034,1.675,13.181-1.362,10.308-5.937,18.654-20.425,18.654-32.3,0-5.937-2.083-10.117-5.447-12.064" transform="translate(-399.7 -100.202)"/>
          <path id="Pfad_795" data-name="Pfad 795" class="cls-4" d="M423.191,105.554c-10.294,5.95-18.641,20.425-18.641,32.312s8.347,16.707,18.641,10.757,18.668-20.425,18.655-32.3S433.485,99.617,423.191,105.554Z" transform="translate(-397.946 -99.185)"/>
          <path id="Pfad_796" data-name="Pfad 796" class="cls-4" d="M431.268,126.081v1.362a29.876,29.876,0,0,1-10.294,10.784c-4,2.315-7.639,2.56-10.294,1.089v-2.8a18.341,18.341,0,0,1,8.388-14.542l2.723-1.566c2.41-1.362,4.739-1.566,6.563-.5S431.268,123.222,431.268,126.081Z" transform="translate(-395.729 -93.324)"/>
          <path id="Pfad_797" data-name="Pfad 797" class="cls-5" d="M430.816,101.452l6.6,3.826c-3.377-1.961-8.034-1.675-13.194,1.294-6.74,3.908-12.65,11.451-15.918,19.54l-6.618-3.84c3.282-8.088,9.191-15.632,15.931-19.526C422.768,99.777,427.439,99.491,430.816,101.452Z" transform="translate(-398.98 -100.202)"/>
          <path id="Pfad_798" data-name="Pfad 798" class="cls-7" d="M411.5,141.544l-6.318-3.663c-3.4-1.934-5.447-6.127-5.447-12.091l6.6,3.84C406.29,135.417,408.264,139.543,411.5,141.544Z" transform="translate(-399.686 -90.949)"/>
          <path id="Pfad_799" data-name="Pfad 799" class="cls-8" d="M402.41,116.41l6.618,3.84a34.532,34.532,0,0,0-2.723,12.772h0l-6.6-3.84a34.832,34.832,0,0,1,2.71-12.772Z" transform="translate(-399.7 -94.341)"/>
          <path id="Pfad_800" data-name="Pfad 800" class="cls-9" d="M417.52,123.518a3.608,3.608,0,0,1-1.8-.463,4.425,4.425,0,0,1-1.947-4.085,11.6,11.6,0,0,1,5.338-9.218h0a3.976,3.976,0,0,1,6.413,3.717,11.588,11.588,0,0,1-5.324,9.218A5.447,5.447,0,0,1,417.52,123.518Z" transform="translate(-394.617 -97.065)"/>
          <path id="Pfad_801" data-name="Pfad 801" class="cls-9" d="M428.344,119.9c-1.825-1.062-4.085-.871-6.563.5l-2.723,1.566a18.341,18.341,0,0,0-8.388,14.542v2.832c2.655,1.471,6.291,1.225,10.294-1.089a29.874,29.874,0,0,0,10.294-10.784V126.11C431.272,123.223,430.182,120.976,428.344,119.9Z" transform="translate(-395.733 -93.325)"/>
        </g>
        <g id="freepik--Twitter--inject-1--inject-2" transform="translate(367.861 244.346)">
          <path id="Pfad_802" data-name="Pfad 802" class="cls-4" d="M357.532,224.606a33.02,33.02,0,0,0,2.9-13.712,25.792,25.792,0,0,0,2.369-4.657,17.17,17.17,0,0,1-2.723,2.574,12.582,12.582,0,0,0,2.083-4.711,17.987,17.987,0,0,1-3.023,3.282,2.9,2.9,0,0,0-3.459,0,11.247,11.247,0,0,0-4.63,10.457c-3.949,2.015-7.448,1.511-9.79-.967-1.253,3.568-.654,6.944,1.471,7.612a3.527,3.527,0,0,1-2.151.449c0,2.955,1.525,4.793,3.8,4.085a5.883,5.883,0,0,1-2.138,1.362,2.8,2.8,0,0,0,4.439,1.838,16.476,16.476,0,0,1-7.04,6.686,9.531,9.531,0,0,0,7.285-1.362c4.7-2.723,8.306-7.612,10.607-12.922" transform="translate(-339.64 -204.1)"/>
        </g>
        <g id="freepik--Instagram--inject-1--inject-2" transform="translate(11.165 246.47)">
          <path id="Pfad_803" data-name="Pfad 803" class="cls-4" d="M89.73,206.9c3.377-1.947,8.034-1.675,13.194,1.362,10.294,5.95,18.641,20.425,18.641,32.312,0,5.964-2.111,10.144-5.447,12.078l-6.577,3.813c-3.363,1.947-8.034,1.675-13.181-1.294-10.294-5.95-18.641-20.425-18.641-32.312,0-5.937,2.083-10.117,5.447-12.064" transform="translate(-77.666 -205.659)"/>
          <path id="Pfad_804" data-name="Pfad 804" class="cls-4" d="M96.321,211.012c10.294,5.95,18.655,20.425,18.655,32.3s-8.36,16.707-18.655,10.771S77.666,233.657,77.68,221.769,86.04,205.1,96.321,211.012Z" transform="translate(-77.68 -204.639)"/>
          <path id="Pfad_805" data-name="Pfad 805" class="cls-9" d="M91.485,221.777c-2.288-1.362-4.085.082-4.085,3.132a9.913,9.913,0,0,0,4.085,7.911c2.288,1.362,4.085-.082,4.085-3.132a9.913,9.913,0,0,0-4.085-7.911Zm0,9.109a6.441,6.441,0,0,1-2.723-5.147c0-1.974,1.2-2.887,2.723-2.029a6.454,6.454,0,0,1,2.723,5.133C94.181,230.832,92.969,231.8,91.485,230.886Z" transform="translate(-74.165 -200.017)"/>
          <path id="Pfad_806" data-name="Pfad 806" class="cls-9" d="M95.387,223.8c0,.722-.436,1.048-.967.735a2.3,2.3,0,0,1-.98-1.852c0-.708.436-1.035.98-.722a2.3,2.3,0,0,1,.967,1.838" transform="translate(-71.98 -199.807)"/>
          <path id="Pfad_807" data-name="Pfad 807" class="cls-9" d="M100.4,221.926,86.038,213.62c-1.021-.586-1.838,0-1.838,1.362V234.14a4.371,4.371,0,0,0,1.838,3.5l5.147,2.982,4.276,2.465,4.943,2.846c1.008.585,1.838,0,1.838-1.362V225.426a4.385,4.385,0,0,0-1.838-3.5Zm0,21.691-13.725-7.925a1.5,1.5,0,0,1-.735-1.28V215.976L99.668,223.9a1.457,1.457,0,0,1,.735,1.28Z" transform="translate(-75.322 -202.863)"/>
          <path id="Pfad_808" data-name="Pfad 808" class="cls-5" d="M88.294,206.9l-6.6,3.826c3.377-1.947,8.034-1.675,13.181,1.362,6.74,3.894,12.65,11.438,15.931,19.526l6.6-3.84c-3.268-8.075-9.177-15.632-15.918-19.526C96.328,205.224,91.644,204.952,88.294,206.9Z" transform="translate(-76.23 -205.66)"/>
          <path id="Pfad_809" data-name="Pfad 809" class="cls-7" d="M101.24,247l6.318-3.676c3.39-1.934,5.447-6.114,5.447-12.078l-6.6,3.826C106.441,240.877,104.453,244.989,101.24,247Z" transform="translate(-69.16 -196.405)"/>
          <path id="Pfad_810" data-name="Pfad 810" class="cls-8" d="M109.674,221.86l-6.6,3.84a34.586,34.586,0,0,1,2.723,12.772h0l6.6-3.826a34.6,34.6,0,0,0-2.723-12.786Z" transform="translate(-68.498 -199.801)"/>
        </g>
        <g id="freepik--Facebook--inject-1--inject-2" transform="translate(344.387 11.481)">
          <path id="Pfad_811" data-name="Pfad 811" class="cls-4" d="M354.245,34.332c-3.363-1.961-8.034-1.675-13.181,1.294-10.308,5.95-18.655,20.425-18.655,32.3,0,5.978,2.111,10.158,5.447,12.091l6.577,3.813c3.377,1.947,8.034,1.675,13.181-1.294,10.294-5.95,18.655-20.425,18.655-32.312,0-5.937-2.1-10.117-5.447-12.064" transform="translate(-322.396 -33.082)"/>
          <path id="Pfad_812" data-name="Pfad 812" class="cls-4" d="M345.951,38.477c-10.294,5.95-18.641,20.425-18.641,32.3s8.292,16.707,18.641,10.771,18.655-20.425,18.655-32.312S356.19,32.527,345.951,38.477Z" transform="translate(-320.624 -32.054)"/>
          <path id="Pfad_813" data-name="Pfad 813" class="cls-5" d="M353.522,34.323l6.618,3.826c-3.377-1.947-8.047-1.675-13.194,1.362-6.74,3.894-12.65,11.438-15.931,19.526l-6.6-3.84c3.282-8.075,9.177-15.632,15.931-19.526C345.488,32.689,350.159,32.4,353.522,34.323Z" transform="translate(-321.673 -33.074)"/>
          <path id="Pfad_814" data-name="Pfad 814" class="cls-7" d="M334.228,74.464,327.9,70.788c-3.391-1.934-5.447-6.114-5.447-12.078l6.618,3.826C329.013,68.337,331,72.449,334.228,74.464Z" transform="translate(-322.382 -23.814)"/>
          <path id="Pfad_815" data-name="Pfad 815" class="cls-8" d="M325.137,49.32l6.6,3.84a34.831,34.831,0,0,0-2.723,12.772h0L322.4,62.106a34.6,34.6,0,0,1,2.737-12.786Z" transform="translate(-322.4 -27.21)"/>
          <g id="freepik--facebook--inject-1--inject-2-2" data-name="freepik--facebook--inject-1--inject-2" transform="translate(19.88 9.814)">
            <path id="Pfad_816" data-name="Pfad 816" class="cls-9" d="M339.424,76.564l4.739-2.723V57.978l3.309-1.906.354-5.447-3.663,2.111V49.658c0-1.253.191-1.852,1.1-2.369l2.628-1.484V40.29L344.612,42.2a9.627,9.627,0,0,0-5.12,9v4.221L337,56.848v5.365l2.465-1.362Z" transform="translate(-337 -40.29)"/>
          </g>
        </g>
        <g id="freepik--Like--inject-1--inject-2" transform="translate(290.738 333.496)">
          <path id="Pfad_817" data-name="Pfad 817" class="cls-4" d="M314.845,270.822c-3.363-1.961-8.034-1.675-13.181,1.294-10.308,5.95-18.655,20.425-18.655,32.3,0,5.978,2.111,10.158,5.447,12.091l6.577,3.813c3.377,1.947,8.034,1.675,13.181-1.362,10.294-5.937,18.655-20.425,18.655-32.3,0-5.937-2.1-10.117-5.447-12.064" transform="translate(-282.996 -269.572)"/>
          <path id="Pfad_818" data-name="Pfad 818" class="cls-4" d="M306.511,274.937c-10.294,5.937-18.641,20.425-18.641,32.3s8.347,16.707,18.641,10.757,18.655-20.425,18.655-32.3S316.8,268.986,306.511,274.937Z" transform="translate(-281.239 -268.554)"/>
          <path id="Pfad_819" data-name="Pfad 819" class="cls-5" d="M314.126,270.822l6.618,3.826c-3.377-1.947-8.047-1.675-13.194,1.294-6.74,3.908-12.65,11.451-15.931,19.54L285,291.641c3.282-8.088,9.177-15.632,15.931-19.526C306.092,269.147,310.762,268.861,314.126,270.822Z" transform="translate(-282.277 -269.573)"/>
          <path id="Pfad_820" data-name="Pfad 820" class="cls-7" d="M294.828,310.929l-6.332-3.717c-3.39-1.934-5.447-6.114-5.447-12.091l6.618,3.84C289.613,304.815,291.6,308.927,294.828,310.929Z" transform="translate(-282.982 -260.333)"/>
          <path id="Pfad_821" data-name="Pfad 821" class="cls-8" d="M285.723,285.78l6.6,3.84a34.776,34.776,0,0,0-2.723,12.772h0l-6.6-3.84a34.586,34.586,0,0,1,2.723-12.772Z" transform="translate(-283 -263.711)"/>
          <path id="Pfad_822" data-name="Pfad 822" class="cls-9" d="M298.38,293.121s3.023-6.944,3.309-7.952a31,31,0,0,0,0-5.174c0-.667,2.723-2.519,3.636-.613a10.089,10.089,0,0,1,.463,6.427l6.7-3.908c1.362-.831,2,.34,2,1.253a5.079,5.079,0,0,1-1.076,2.887s1.362-.408,1.362,1.362a4.711,4.711,0,0,1-1.62,3.282s.436.34.449,1.593a5.338,5.338,0,0,1-1.879,3.35,4.083,4.083,0,0,1,.3,1.579,5.147,5.147,0,0,1-2.451,3.853l-11.084,6.468Z" transform="translate(-277.438 -266.328)"/>
          <path id="Pfad_823" data-name="Pfad 823" class="cls-9" d="M293.728,309.238l4.834-2.819-.068-16.789-4.834,2.8Z" transform="translate(-279.145 -262.319)"/>
        </g>
        <g id="freepik--Heart--inject-1--inject-2" transform="translate(79.602 136.305)">
          <path id="Pfad_824" data-name="Pfad 824" class="cls-4" d="M139.841,150.838l3.077-.245c4.085-.327,8.892-1.92,8.892-7.721a13.616,13.616,0,0,0-6.155-10.662c-2.655-1.525-4.916-.9-5.787,1.362a13.616,13.616,0,0,0-5.773-7.979c-3.4-1.961-6.155-.368-6.155,3.554,0,5.692,4.807,12.881,8.837,17.919Z" transform="translate(-127.94 -124.754)"/>
        </g>
        <g id="freepik--Play--inject-1--inject-2" transform="translate(151.115 329.486)">
          <path id="Pfad_825" data-name="Pfad 825" class="cls-4" d="M192.51,267.869c3.377-1.947,8.034-1.675,13.194,1.362,10.294,5.95,18.641,20.425,18.641,32.3,0,5.964-2.111,10.144-5.447,12.091l-6.577,3.813c-3.363,1.947-8.034,1.661-13.181-1.362-10.294-5.95-18.641-20.425-18.641-32.3,0-5.95,2.083-10.117,5.447-12.064" transform="translate(-180.446 -266.626)"/>
          <path id="Pfad_826" data-name="Pfad 826" class="cls-4" d="M199.1,271.976c10.308,5.95,18.655,20.425,18.655,32.3S209.395,321,199.1,315.045s-18.654-20.425-18.641-32.3S188.821,266.108,199.1,271.976Z" transform="translate(-180.46 -265.6)"/>
          <path id="Pfad_827" data-name="Pfad 827" class="cls-5" d="M191.074,267.87l-6.6,3.84c3.377-1.961,8.034-1.675,13.181,1.294,6.74,3.894,12.65,11.451,15.931,19.526l6.6-3.826c-3.268-8.088-9.123-15.632-15.931-19.526C199.108,266.2,194.451,265.923,191.074,267.87Z" transform="translate(-179.01 -266.627)"/>
          <path id="Pfad_828" data-name="Pfad 828" class="cls-7" d="M204,307.974l6.318-3.663c3.391-1.947,5.447-6.127,5.447-12.091l-6.522,3.785C209.229,301.847,207.241,305.973,204,307.974Z" transform="translate(-171.947 -257.372)"/>
          <path id="Pfad_829" data-name="Pfad 829" class="cls-8" d="M212.454,282.84l-6.6,3.826a34.586,34.586,0,0,1,2.723,12.772h0l6.6-3.84a34.585,34.585,0,0,0-2.723-12.759Z" transform="translate(-171.278 -260.764)"/>
          <path id="Pfad_830" data-name="Pfad 830" class="cls-9" d="M189.84,278.7v18.069c0,1.362.531,2.342,1.2,2.219l12.513-2.41c.654-.136.381-1.362-.64-2.723L191.678,278.71C190.657,277.362,189.84,277.349,189.84,278.7Z" transform="translate(-177.068 -262.626)"/>
        </g>
        <g id="freepik--Music--inject-1--inject-2" transform="translate(0 93.425)">
          <path id="Pfad_831" data-name="Pfad 831" class="cls-4" d="M81.53,94.512c3.377-1.961,8.034-1.675,13.194,1.294,10.294,5.95,18.641,20.425,18.641,32.3,0,5.978-2.1,10.158-5.447,12.091l-6.563,3.813c-3.377,1.947-8.034,1.675-13.194-1.362-10.294-5.937-18.641-20.425-18.641-32.3,0-5.937,2.083-10.117,5.447-12.064" transform="translate(-69.466 -93.262)"/>
          <path id="Pfad_832" data-name="Pfad 832" class="cls-4" d="M88.135,98.684c10.294,5.95,18.641,20.425,18.641,32.3S98.429,147.69,88.121,141.74s-18.655-20.425-18.641-32.3S77.84,92.666,88.135,98.684Z" transform="translate(-69.48 -92.234)"/>
          <path id="Pfad_833" data-name="Pfad 833" class="cls-5" d="M80.094,94.506l-6.6,3.84c3.377-1.947,8.034-1.675,13.181,1.362,6.808,3.894,12.663,11.438,15.931,19.526l6.6-3.84c-3.268-8.156-9.15-15.686-15.958-19.594C88.128,92.9,83.471,92.546,80.094,94.506Z" transform="translate(-68.03 -93.257)"/>
          <path id="Pfad_834" data-name="Pfad 834" class="cls-7" d="M93,134.6l6.318-3.663c3.4-1.934,5.447-6.114,5.447-12.091l-6.6,3.84C98.27,128.49,96.282,132.671,93,134.6Z" transform="translate(-60.974 -84.009)"/>
          <path id="Pfad_835" data-name="Pfad 835" class="cls-8" d="M101.474,109.47l-6.6,3.84a34.586,34.586,0,0,1,2.723,12.772h0l6.6-3.84A34.586,34.586,0,0,0,101.474,109.47Z" transform="translate(-60.298 -87.401)"/>
          <path id="Pfad_836" data-name="Pfad 836" class="cls-9" d="M81,102.05v18.518a6.4,6.4,0,0,0-1.225-.94c-1.362-.817-2.546.286-2.546,2.451a6.686,6.686,0,0,0,2.546,5.378c1.362.817,3.091,0,3.091-2.151v-16.98l8.17,4.793v13.29a7,7,0,0,0-1.225-.94c-1.362-.817-2.083.531-2.083,2.723a6.713,6.713,0,0,0,2.546,5.447c1.362.817,2.546-.286,2.546-2.451h0V108.994Z" transform="translate(-66.678 -90.085)"/>
        </g>
        <g id="freepik--Image--inject-1--inject-2" transform="translate(441.186 254.328)">
          <path id="Pfad_837" data-name="Pfad 837" class="cls-4" d="M425.325,212.669c-3.377-1.947-8.047-1.675-13.194,1.362-10.294,5.95-18.641,20.425-18.641,32.3,0,5.964,2.1,10.144,5.447,12.091l6.563,3.813c3.377,1.947,8.034,1.661,13.181-1.362,10.308-5.95,18.655-20.425,18.655-32.3,0-5.95-2.083-10.117-5.447-12.064" transform="translate(-393.49 -211.43)"/>
          <path id="Pfad_838" data-name="Pfad 838" class="cls-4" d="M416.951,216.784c-10.294,5.95-18.641,20.425-18.641,32.3s8.347,16.721,18.641,10.771,18.668-20.425,18.655-32.3S427.286,210.847,416.951,216.784Z" transform="translate(-391.747 -210.412)"/>
          <path id="Pfad_839" data-name="Pfad 839" class="cls-5" d="M424.606,212.669l6.6,3.84c-3.377-1.961-8.034-1.675-13.194,1.362-6.74,3.894-12.65,11.451-15.918,19.526l-6.618-3.826c3.282-8.088,9.191-15.632,15.931-19.526C416.613,210.994,421.229,210.722,424.606,212.669Z" transform="translate(-392.77 -211.43)"/>
          <path id="Pfad_840" data-name="Pfad 840" class="cls-7" d="M405.295,252.774l-6.318-3.663c-3.4-1.947-5.447-6.127-5.447-12.091l6.6,3.84C400.08,246.647,402.068,250.773,405.295,252.774Z" transform="translate(-393.476 -202.176)"/>
          <path id="Pfad_841" data-name="Pfad 841" class="cls-8" d="M396.2,227.64l6.618,3.826a34.585,34.585,0,0,0-2.723,12.772h0l-6.6-3.853a34.83,34.83,0,0,1,2.71-12.745Z" transform="translate(-393.49 -205.568)"/>
          <path id="Pfad_842" data-name="Pfad 842" class="cls-9" d="M405.19,230.349v23.42c0,.708.49.994,1.1.64l16.435-9.532a2.437,2.437,0,0,0,1.1-1.906V219.578c0-.694-.49-.98-1.1-.64l-16.435,9.532a2.4,2.4,0,0,0-1.1,1.879Zm16.5,13.616-14.365,8.306a.686.686,0,0,1-1.1-.64v-20.3a2.424,2.424,0,0,1,1.1-1.906l14.365-8.292c.613-.354,1.1-.068,1.1.626V242a2.4,2.4,0,0,1-1.1,1.906Z" transform="translate(-389.259 -208.767)"/>
          <path id="Pfad_843" data-name="Pfad 843" class="cls-9" d="M405.95,248.451v-6.59l5.229-10.035,5.433,5.964-1.171-2.887,2.151-3.962,4.929,3.377v4.575Z" transform="translate(-388.984 -204.375)"/>
          <path id="Pfad_844" data-name="Pfad 844" class="cls-9" d="M415.418,224.973c.654-.381,1.2.136,1.2,1.157a3.186,3.186,0,0,1-1.2,2.533c-.667.381-1.2-.136-1.2-1.157A3.132,3.132,0,0,1,415.418,224.973Z" transform="translate(-385.993 -206.578)"/>
        </g>
        <g id="freepik--speach-bubble--inject-1--inject-2" transform="translate(110.756)">
          <path id="Pfad_845" data-name="Pfad 845" class="cls-4" d="M172.066,80.234l-3.69-6.931,3.036-8.551V59.51l-9.082,5.242v5.229l3.908,6.808a.558.558,0,0,0,.272.231h0Z" transform="translate(-146.657 -12.044)"/>
          <path id="Pfad_846" data-name="Pfad 846" class="cls-7" d="M172.066,80.234l-3.69-6.931,3.036-8.551V59.51l-9.082,5.242v5.229l3.908,6.808a.558.558,0,0,0,.272.231h0Z" transform="translate(-146.657 -12.044)"/>
          <path id="Pfad_847" data-name="Pfad 847" class="cls-4" d="M215.253,31.295a6.046,6.046,0,0,0-2.723-4.711L210.31,25.3a6,6,0,0,0-5.447,0L153.543,54.96a5.991,5.991,0,0,0-2.723,4.711V86.21a6,6,0,0,0,2.723,4.725l2.219,1.28a6.059,6.059,0,0,0,5.447,0L172.1,85.9,176,92.7a.572.572,0,0,0,1.048-.1l4.085-11.887,31.318-18.1a6.046,6.046,0,0,0,2.723-4.711Z" transform="translate(-150.82 -24.65)"/>
          <path id="Pfad_848" data-name="Pfad 848" class="cls-7" d="M150.82,77.632a6,6,0,0,0,2.723,4.725l2.219,1.28a6.127,6.127,0,0,0,4.97.218c-1.28.477-2.26-.245-2.26-1.8V55.519a5.556,5.556,0,0,1,.8-2.723l-7.652-4.425a5.447,5.447,0,0,0-.8,2.723Z" transform="translate(-150.82 -16.072)"/>
          <path id="Pfad_849" data-name="Pfad 849" class="cls-10" d="M214.955,30.57c-.313-1.157-1.362-1.525-2.628-.8l-51.334,29.67a5.324,5.324,0,0,0-1.961,1.974l-7.652-4.425a5.637,5.637,0,0,1,1.92-2.029L204.62,25.3a6.087,6.087,0,0,1,5.447,0l2.219,1.28A5.977,5.977,0,0,1,214.955,30.57Z" transform="translate(-150.617 -24.648)"/>
          <path id="Pfad_850" data-name="Pfad 850" class="cls-9" d="M168.426,54.062a8.006,8.006,0,0,0-3.636,6.291c0,2.315,1.62,3.254,3.636,2.1a8.034,8.034,0,0,0,3.622-6.291C172.048,53.844,170.427,52.9,168.426,54.062Z" transform="translate(-145.768 -14.193)"/>
          <path id="Pfad_851" data-name="Pfad 851" class="cls-9" d="M178.256,48.372a8.047,8.047,0,0,0-3.636,6.291c0,2.315,1.634,3.254,3.636,2.1a8.047,8.047,0,0,0,3.69-6.291C181.946,48.154,180.257,47.214,178.256,48.372Z" transform="translate(-142.213 -16.251)"/>
          <path id="Pfad_852" data-name="Pfad 852" class="cls-9" d="M188.1,42.682a8.006,8.006,0,0,0-3.636,6.291c0,2.315,1.62,3.254,3.636,2.1a8.034,8.034,0,0,0,3.622-6.291C191.718,42.464,190.1,41.524,188.1,42.682Z" transform="translate(-138.654 -18.309)"/>
        </g>
        <g id="freepik--Letter--inject-1--inject-2" transform="translate(384.691 121.633)">
          <path id="Pfad_853" data-name="Pfad 853" class="cls-4" d="M352.837,151.058l23.57-13.616a1.988,1.988,0,0,0,.8-1.566V114.689c0-.6-.354-.871-.8-.613l-23.57,13.616a1.947,1.947,0,0,0-.817,1.552v21.214C351.993,151.045,352.388,151.317,352.837,151.058Z" transform="translate(-351.993 -113.978)"/>
          <path id="Pfad_854" data-name="Pfad 854" class="cls-9" d="M352,150.417v-.422l9.749-16.149-9.613-5.324a.681.681,0,0,1,.068-.177l11.982,5c.245.109.572-.082.831-.49l11.969-18.791a.164.164,0,0,1,.068,0l-9.6,16.421,9.736,4.9v.409a2.164,2.164,0,0,1-.245.967l-9.981-5.447-1.362,2.424c-.572.953-1.362,1.362-1.893,1.089l-1.362-.79-9.967,16.939a.749.749,0,0,1-.381-.558Z" transform="translate(-352 -113.95)"/>
        </g>
        <g id="freepik--Money--inject-1--inject-2" transform="translate(108.276 238.706)">
          <path id="Pfad_855" data-name="Pfad 855" class="cls-4" d="M158.532,206.646a15.4,15.4,0,0,1,1.961,2.478A21.2,21.2,0,0,1,162,211.97a19.229,19.229,0,0,1,.98,2.859,11.765,11.765,0,0,1,.395,2.533.844.844,0,0,1-.163.572.259.259,0,0,1-.354.082l-3.145-1.825a1.579,1.579,0,0,1-.545-.49,5.05,5.05,0,0,1-.422-.749l-.231-.558a5.829,5.829,0,0,0-.436-.885,6.482,6.482,0,0,0-.735-.967,4.086,4.086,0,0,0-1.048-.844,5.054,5.054,0,0,0-.885-.409,1.5,1.5,0,0,0-.749-.082.735.735,0,0,0-.531.354,1.743,1.743,0,0,0-.2.953,3.186,3.186,0,0,0,.231,1.2,5.024,5.024,0,0,0,.776,1.239,13.873,13.873,0,0,0,1.362,1.525c.6.572,1.362,1.28,2.219,2.1a21.786,21.786,0,0,1,2.3,2.533,13.7,13.7,0,0,1,1.648,2.723,14.012,14.012,0,0,1,.994,3.132,19.228,19.228,0,0,1,.327,3.676,11.236,11.236,0,0,1-.381,3.077,5.228,5.228,0,0,1-1.089,2.029,3.064,3.064,0,0,1-1.688.953,4.6,4.6,0,0,1-2.165-.136V239.6a1.089,1.089,0,0,1-.191.694.313.313,0,0,1-.463.082l-3.145-1.825a1.225,1.225,0,0,1-.463-.6,2.45,2.45,0,0,1-.191-.926v-3.173A14.638,14.638,0,0,1,152,231.333a20.918,20.918,0,0,1-1.593-2.914,17.823,17.823,0,0,1-1.021-3.009,13.777,13.777,0,0,1-.381-2.846.926.926,0,0,1,.15-.572.272.272,0,0,1,.354-.082l3.159,1.825a1.934,1.934,0,0,1,.531.449,5.814,5.814,0,0,1,.381.681,4.391,4.391,0,0,0,.286.722,8.494,8.494,0,0,0,.517,1.089,7.011,7.011,0,0,0,.817,1.171,4.4,4.4,0,0,0,1.212,1.008,4.575,4.575,0,0,0,2.138.735c.572,0,.858-.422.858-1.28a2.791,2.791,0,0,0-.313-1.253,8.171,8.171,0,0,0-.94-1.362c-.422-.477-.953-1.021-1.607-1.634s-1.362-1.362-2.3-2.179a14.842,14.842,0,0,1-3.622-5.242,17.484,17.484,0,0,1-1.144-6.536,10.978,10.978,0,0,1,.313-2.723,6.2,6.2,0,0,1,.912-2.029,3.24,3.24,0,0,1,1.443-1.171,3.6,3.6,0,0,1,1.934-.218V200.8a1.13,1.13,0,0,1,.191-.708.34.34,0,0,1,.463-.082l3.145,1.825a1.266,1.266,0,0,1,.463.613,2.383,2.383,0,0,1,.191.912Z" transform="translate(-148.998 -199.958)"/>
        </g>
        <g id="freepik--Pin--inject-1--inject-2" transform="translate(239.077 21.297)">
          <path id="Pfad_856" data-name="Pfad 856" class="cls-4" d="M268.97,43.721l-4.344-2.465h0c-2.056-1.362-4.929-1.362-8.17.5-6.3,3.636-11.4,12.868-11.4,20.615v1.757c0,7.748,10.417,16.176,10.417,16.176l4.262,2.41s-2.56-2.914-2.274-3.513c2.723-5.733,10.389-21.909,10.389-28.227v-1.77a13.874,13.874,0,0,0-.49-3.785l.49.286Zm-12.445,17.7c-3.145,1.811-5.705.34-5.705-3.3,1.7-.259,5.964-7.53,5.705-9.872,3.145-1.811,5.692-.34,5.692,3.3a12.609,12.609,0,0,1-5.692,9.94Z" transform="translate(-245.06 -40.291)"/>
          <g id="Gruppe_87" data-name="Gruppe 87" class="cls-11">
            <path id="Pfad_857" data-name="Pfad 857" d="M268.97,43.721l-4.344-2.465h0c-2.056-1.362-4.929-1.362-8.17.5-6.3,3.636-11.4,12.868-11.4,20.615v1.757c0,7.748,10.417,16.176,10.417,16.176l4.262,2.41s-2.56-2.914-2.274-3.513c2.723-5.733,10.389-21.909,10.389-28.227v-1.77a13.874,13.874,0,0,0-.49-3.785l.49.286Zm-12.445,17.7c-3.145,1.811-5.705.34-5.705-3.3,1.7-.259,5.964-7.53,5.705-9.872,3.145-1.811,5.692-.34,5.692,3.3a12.609,12.609,0,0,1-5.692,9.94Z" transform="translate(-245.06 -40.291)"/>
          </g>
          <path id="Pfad_858" data-name="Pfad 858" class="cls-4" d="M271.258,51.129c0-7.748-5.106-11.084-11.4-7.448S248.45,56.548,248.45,64.3v1.77c0,5.964,6.808,12.881,9.872,15.754a1.539,1.539,0,0,0,2.424-.449c2.723-5.447,10.512-22.059,10.512-28.472Zm-11.4,12.255c-3.159,1.825-5.705.354-5.705-3.282a12.568,12.568,0,0,1,5.705-9.872c3.145-1.825,5.692-.354,5.692,3.282a12.582,12.582,0,0,1-5.692,9.913Z" transform="translate(-243.834 -39.597)"/>
        </g>
      </g>
      <g id="freepik--Lines--inject-1--inject-2" class="cls-12" transform="translate(18.747 27.322)">
        <path id="Pfad_859" data-name="Pfad 859" class="cls-4" d="M433.7,126.029a.517.517,0,0,1-.327-.123L349.21,57.43a.508.508,0,1,1,.64-.79l84.177,68.491a.5.5,0,0,1-.327.9Z" transform="translate(12.868 -40.445)"/>
        <path id="Pfad_860" data-name="Pfad 860" class="cls-4" d="M410.287,242.951h0a.517.517,0,0,1-.477-.531l4.915-106.589a.511.511,0,1,1,1.021.041L410.79,242.447a.5.5,0,0,1-.5.5Z" transform="translate(34.851 -11.942)"/>
        <path id="Pfad_861" data-name="Pfad 861" class="cls-4" d="M419.535,247.286a.477.477,0,0,1-.449-.272L363.354,142.167a.517.517,0,0,1,.218-.681.5.5,0,0,1,.681.2l55.718,104.846a.49.49,0,0,1-.2.681.5.5,0,0,1-.232.068Z" transform="translate(18.032 -9.741)"/>
        <path id="Pfad_862" data-name="Pfad 862" class="cls-4" d="M373.523,124.819a.49.49,0,0,1-.49-.409.518.518,0,0,1,.395-.6l41.775-8.279a.49.49,0,0,1,.585.395.518.518,0,0,1-.395.6l-41.721,8.279Z" transform="translate(21.548 -19.109)"/>
        <path id="Pfad_863" data-name="Pfad 863" class="cls-4" d="M365.006,133.734a.5.5,0,0,1-.463-.3L337.2,70.608a.5.5,0,1,1,.926-.395l27.41,62.813a.49.49,0,0,1-.259.667.544.544,0,0,1-.272.041Z" transform="translate(8.577 -35.609)"/>
        <path id="Pfad_864" data-name="Pfad 864" class="cls-4" d="M265.516,60.367a.517.517,0,0,1-.5-.422.49.49,0,0,1,.422-.586l89.433-14.638a.51.51,0,0,1,.163,1.008L265.6,60.353Z" transform="translate(-17.517 -44.716)"/>
        <path id="Pfad_865" data-name="Pfad 865" class="cls-4" d="M384.793,140.535a.558.558,0,0,1-.272-.082L264.6,63.507a.506.506,0,0,1,.558-.844l119.893,76.946a.5.5,0,0,1-.286.926Z" transform="translate(-17.745 -38.256)"/>
        <path id="Pfad_866" data-name="Pfad 866" class="cls-4" d="M352.58,224.131h0a.517.517,0,0,1-.449-.572l9.191-81.7a.5.5,0,0,1,.572-.449.49.49,0,0,1,.436.558l-9.191,81.7a.5.5,0,0,1-.558.463Z" transform="translate(13.991 -9.749)"/>
        <path id="Pfad_867" data-name="Pfad 867" class="cls-4" d="M312.355,305.847a.513.513,0,0,1-.259-.953l114.378-66.584a.5.5,0,1,1,.5.871L312.6,305.779a.613.613,0,0,1-.245.068Z" transform="translate(-0.576 25.27)"/>
        <path id="Pfad_868" data-name="Pfad 868" class="cls-4" d="M412.217,233.784h-.15l-53.662-15.618a.517.517,0,0,1-.34-.626.5.5,0,0,1,.626-.354L412.353,232.8a.5.5,0,0,1-.136.98Z" transform="translate(16.131 17.649)"/>
        <path id="Pfad_869" data-name="Pfad 869" class="cls-4" d="M311.385,288.4a.531.531,0,0,1-.313-.1.517.517,0,0,1-.1-.708l40.563-54.466a.5.5,0,0,1,.708-.109.517.517,0,0,1,.109.722l-40.563,54.466a.517.517,0,0,1-.408.191Z" transform="translate(-0.927 23.349)"/>
        <path id="Pfad_870" data-name="Pfad 870" class="cls-4" d="M207.514,285.306a.476.476,0,0,1-.395-.2l-44.73-57.284a.5.5,0,1,1,.79-.626l44.744,57.284a.517.517,0,0,1-.409.831Z" transform="translate(-54.666 21.206)"/>
        <path id="Pfad_871" data-name="Pfad 871" class="cls-4" d="M106.623,234.2a.517.517,0,0,1-.463-.313.5.5,0,0,1,.286-.667l48.529-19.322a.517.517,0,0,1,.381.953l-48.5,19.322Z" transform="translate(-74.976 16.46)"/>
        <path id="Pfad_872" data-name="Pfad 872" class="cls-4" d="M155.593,211.092a.49.49,0,0,1-.49-.381l-14.828-60.825a.5.5,0,0,1,.368-.613.517.517,0,0,1,.613.381l14.828,60.811a.5.5,0,0,1-.368.613Z" transform="translate(-62.63 -6.908)"/>
        <path id="Pfad_873" data-name="Pfad 873" class="cls-4" d="M96.3,236a.477.477,0,0,1-.231,0,.5.5,0,0,1-.218-.681l46.3-92.306a.517.517,0,0,1,.681-.231.531.531,0,0,1,.231.694l-46.309,92.21A.477.477,0,0,1,96.3,236Z" transform="translate(-78.709 -9.269)"/>
        <path id="Pfad_874" data-name="Pfad 874" class="cls-4" d="M94.307,238.405a.5.5,0,0,1-.5-.463L83.251,127.649a.5.5,0,0,1,.463-.558.49.49,0,0,1,.545.463L94.811,237.847a.5.5,0,0,1-.449.558Z" transform="translate(-83.248 -14.927)"/>
        <path id="Pfad_875" data-name="Pfad 875" class="cls-4" d="M216.63,304.355a.463.463,0,0,1-.259-.068L104.948,239.963a.509.509,0,0,1,.5-.885l111.437,64.338a.5.5,0,0,1-.259.94Z" transform="translate(-75.493 25.549)"/>
        <path id="Pfad_876" data-name="Pfad 876" class="cls-4" d="M139.863,144.334a.545.545,0,0,1-.2,0,.517.517,0,0,1-.259-.667l29.67-67.8a.5.5,0,0,1,.667-.259.49.49,0,0,1,.259.667l-29.657,67.8A.517.517,0,0,1,139.863,144.334Z" transform="translate(-62.955 -33.559)"/>
        <path id="Pfad_877" data-name="Pfad 877" class="cls-4" d="M258.621,59.7H258.5l-56.3-13.889a.517.517,0,0,1-.381-.613.531.531,0,0,1,.626-.381l56.3,13.875a.511.511,0,0,1-.123,1.008Z" transform="translate(-40.374 -44.685)"/>
        <path id="Pfad_878" data-name="Pfad 878" class="cls-4" d="M92.135,118.331a.49.49,0,0,1-.408-.2.517.517,0,0,1,.109-.722l75.694-54.67a.531.531,0,0,1,.722.109.517.517,0,0,1-.123.722l-75.639,54.67a.49.49,0,0,1-.354.1Z" transform="translate(-80.218 -38.234)"/>
        <path id="Pfad_879" data-name="Pfad 879" class="cls-4" d="M134.693,131.66a.381.381,0,0,1-.2,0l-35.239-16.6a.5.5,0,0,1,.422-.912l35.239,16.49a.5.5,0,0,1,.245.681A.517.517,0,0,1,134.693,131.66Z" transform="translate(-77.555 -19.618)"/>
        <path id="Pfad_880" data-name="Pfad 880" class="cls-4" d="M146.227,156.408a.545.545,0,0,1-.422-.218.5.5,0,0,1,.123-.708L273.922,64.075a.508.508,0,1,1,.586.831L146.513,156.312A.449.449,0,0,1,146.227,156.408Z" transform="translate(-60.658 -37.749)"/>
        <path id="Pfad_881" data-name="Pfad 881" class="cls-4" d="M314.478,287.108h0L209.4,287.04a.49.49,0,0,1,0-.98h0l105.078.082a.49.49,0,1,1,0,.967Z" transform="translate(-37.803 42.564)"/>
      </g>
    </g>
    <g id="freepik--Devices--inject-1--inject-2" transform="translate(72.175 344.28)">
      <g id="freepik--Laptop--inject-1--inject-2" transform="translate(353.404 17.108)">
        <path id="Pfad_906" data-name="Pfad 906" class="cls-13" d="M333.48,365.538a3.935,3.935,0,0,0,1.825,3.036l51.307,29.616a4.085,4.085,0,0,0,3.649,0l70.193-40.523a3.445,3.445,0,0,0,0-6.087L409.16,321.965a4.085,4.085,0,0,0-3.663,0L335.3,362.488A3.935,3.935,0,0,0,333.48,365.538Z" transform="translate(-330.046 -254.023)"/>
        <path id="Pfad_907" data-name="Pfad 907" class="cls-14" d="M388.436,383.753v3.962a3.772,3.772,0,0,1-1.825-.436L335.3,357.664a3.431,3.431,0,0,1-.177-5.964c-.831.585-.763,1.457.177,2l51.307,29.616a3.772,3.772,0,0,0,1.825.436Z" transform="translate(-330.046 -243.113)"/>
        <path id="Pfad_908" data-name="Pfad 908" class="cls-3" d="M332.676,380.485a3.894,3.894,0,0,1-1.716-3.1V316.175A4.085,4.085,0,0,1,332.785,313l70.193-40.522a3.431,3.431,0,0,1,5.256,3.036v61.206a4.085,4.085,0,0,1-1.825,3.173l-70.193,40.522A3.908,3.908,0,0,1,332.676,380.485Z" transform="translate(-330.957 -271.953)"/>
        <path id="Pfad_909" data-name="Pfad 909" class="cls-14" d="M336.013,369.277a3.418,3.418,0,0,1-5.052-3.145V304.857a3.786,3.786,0,0,1,.531-1.8l3.431,1.974h0a3.745,3.745,0,0,0-.531,1.8v61.274C334.392,369.2,335.1,369.7,336.013,369.277Z" transform="translate(-330.958 -260.703)"/>
        <path id="Pfad_910" data-name="Pfad 910" class="cls-13" d="M333.48,317.55v61.274c0,1.157.817,1.634,1.825,1.048L405.5,339.35a4.085,4.085,0,0,0,1.825-3.173v-61.26c0-1.171-.817-1.634-1.825-1.062L335.3,314.377A4.085,4.085,0,0,0,333.48,317.55Z" transform="translate(-330.046 -271.354)"/>
        <path id="Pfad_911" data-name="Pfad 911" class="cls-3" d="M335.018,364.612l51.307,29.6a4.085,4.085,0,0,0,3.649,0l70.193-40.509a1.13,1.13,0,0,0,0-2.124l-51.293-29.616a4.085,4.085,0,0,0-3.663,0l-70.193,40.523a1.13,1.13,0,0,0,0,2.124Z" transform="translate(-329.759 -254.023)"/>
        <path id="Pfad_912" data-name="Pfad 912" class="cls-4" d="M335.843,316.461,403.5,277.4a.686.686,0,0,1,1.1.64v52.982a2.424,2.424,0,0,1-1.1,1.906l-67.66,39.066a.686.686,0,0,1-1.1-.64V318.368a2.424,2.424,0,0,1,1.1-1.906Z" transform="translate(-329.59 -270.033)"/>
        <path id="Pfad_913" data-name="Pfad 913" class="cls-9" d="M373.927,298.98l-.177-.15h0c-2.587-1.947-6.032-1.852-9.695.259a26.552,26.552,0,0,0-9.382,10.376l-.218.395-.109.2a33.729,33.729,0,0,0-4.017,15.278c0,4.888,1.362,8.674,4.017,10.634s6.046,1.865,9.708-.245a27.069,27.069,0,0,0,9.722-10.975,33.727,33.727,0,0,0,4.085-15.278C377.767,304.686,376.406,300.927,373.927,298.98Zm-7.707,34.885a16.112,16.112,0,0,1-1.511,1.076l-.64.395-.626.34a14.265,14.265,0,0,1-1.511.667c-6.359,2.3-11.234-2.206-11.3-10.988v-.381A33.429,33.429,0,0,1,354.715,310l.218-.395a28.73,28.73,0,0,1,7.04-8.687,16.1,16.1,0,0,1,1.511-1.076l.626-.395.64-.34a14.271,14.271,0,0,1,1.511-.667,7.53,7.53,0,0,1,7.326.763,2.259,2.259,0,0,1,.218.163c2.3,1.852,3.731,5.338,3.758,10.063v.381C377.413,318.7,372.538,328.828,366.22,333.866Z" transform="translate(-323.952 -262.738)"/>
        <path id="Pfad_914" data-name="Pfad 914" class="cls-9" d="M364.2,336.806c-3.826,2.206-7.435,2.3-10.144.245s-4.207-5.991-4.207-11.111a35.4,35.4,0,0,1,4.208-15.958l.109-.218.232-.422a27.913,27.913,0,0,1,9.8-10.893c3.826-2.206,7.421-2.3,10.131-.272h0l.191.136h0c2.587,2.1,4.017,5.991,4.017,10.975a35.4,35.4,0,0,1-4.207,15.958,28.227,28.227,0,0,1-10.131,11.56Zm0-36.261-.6.368c-.477.313-.967.654-1.443,1.035a27.464,27.464,0,0,0-6.713,8.279l-.2.381a31.821,31.821,0,0,0-3.826,14.27v.368c0,8.306,4.6,12.718,10.784,10.485a13.353,13.353,0,0,0,1.443-.64c.395-.2.817-.449,1.212-.694s.967-.667,1.443-1.035h0c6.182-4.9,10.716-14.542,10.784-22.93v-.368c0-4.357-1.362-7.761-3.595-9.532l-.2-.163a7.162,7.162,0,0,0-6.985-.722,13.352,13.352,0,0,0-1.443.64Z" transform="translate(-324.126 -262.996)"/>
        <path id="Pfad_915" data-name="Pfad 915" class="cls-9" d="M373.179,298.33l-.177-.136h0l-.218-.163-.218.422-.218.381a34.4,34.4,0,0,1-2.505,3.922,2.556,2.556,0,0,0-.245.327,25.574,25.574,0,0,1-3.976,4.085l-.286.218a18.892,18.892,0,0,1-1.947,1.362,13.181,13.181,0,0,1-2.519,1.13l-.272.082a7.926,7.926,0,0,1-3.881.2h-.245a6.645,6.645,0,0,1-2.342-1.117l-.191-.15-.218-.191-.232.422c0,.123-.15.259-.218.408l-.232.422.218.177.191.15h0a7.311,7.311,0,0,0,2.546,1.212h.259a8.564,8.564,0,0,0,4.153-.259l.286-.082a14.283,14.283,0,0,0,2.723-1.2,21.3,21.3,0,0,0,2.07-1.362l.3-.231a26.634,26.634,0,0,0,4.248-4.384l.259-.354a32.387,32.387,0,0,0,2.723-4.248c.082-.123.15-.259.232-.408l.218-.422Z" transform="translate(-322.972 -262.523)"/>
        <path id="Pfad_916" data-name="Pfad 916" class="cls-9" d="M373.193,317.257a1.239,1.239,0,0,1-.218-.15,6.93,6.93,0,0,0-2.723-1.089,1.477,1.477,0,0,0-.259,0,8.864,8.864,0,0,0-4.248.517l-.3.109a13.612,13.612,0,0,0-2.07.994,18.449,18.449,0,0,0-2.655,1.865l-.3.245a27.478,27.478,0,0,0-4.153,4.548l-.259.354a36.782,36.782,0,0,0-2.546,4.153v.068c-.068.109-.122.232-.191.354l-.272.408.232.163a2.278,2.278,0,0,0,.218.163l.232.15.218-.436.191-.381a34.554,34.554,0,0,1,2.342-3.826l.245-.34a26.273,26.273,0,0,1,3.881-4.262l.272-.231a17.008,17.008,0,0,1,2.519-1.77,13.36,13.36,0,0,1,1.947-.94l.286-.1a8.373,8.373,0,0,1,3.976-.477h.245a6.509,6.509,0,0,1,2.505,1.021l.218.136.218.163.218-.408V318.2c0-.109.123-.232.177-.354l.286-.463Z" transform="translate(-322.986 -256.041)"/>
        <path id="Pfad_917" data-name="Pfad 917" class="cls-9" d="M367.542,301.058c-1.362-2.819-3.227-3.745-5.2-2.6s-3.84,4.207-5.215,8.619a49.552,49.552,0,0,0-2.07,14.324,28.853,28.853,0,0,0,2.07,11.942c1.362,2.819,3.227,3.745,5.215,2.6s3.826-4.207,5.2-8.619a49.548,49.548,0,0,0,2.07-14.338,28.854,28.854,0,0,0-2.07-11.928Zm-5.2,33.714c-1.716.994-3.322.123-4.562-2.424a27.559,27.559,0,0,1-1.947-11.329,47.194,47.194,0,0,1,1.947-13.616c1.239-3.976,2.846-6.7,4.562-7.68s3.309-.123,4.548,2.424a27.559,27.559,0,0,1,1.947,11.329,47.2,47.2,0,0,1-1.947,13.616C365.65,331,364.043,333.724,362.341,334.772Z" transform="translate(-322.251 -262.541)"/>
        <path id="Pfad_918" data-name="Pfad 918" class="cls-9" d="M377.736,305.883l-27.233,15.7a1.185,1.185,0,0,0-.463.926c0,.34.2.545.463.395l27.233-15.7a1.185,1.185,0,0,0,.463-.926C378.2,305.938,377.995,305.733,377.736,305.883Z" transform="translate(-324.057 -259.7)"/>
        <path id="Pfad_919" data-name="Pfad 919" class="cls-9" d="M361.014,334.95V298.7c0-.34-.232-.477-.49-.327a1.144,1.144,0,0,0-.5.9v36.247c0,.34.245.49.5.34A1.185,1.185,0,0,0,361.014,334.95Z" transform="translate(-320.448 -262.419)"/>
        <path id="Pfad_920" data-name="Pfad 920" class="cls-13" d="M339.3,362.048l65.086-37.609a1.988,1.988,0,0,1,1.838,0l3.322,1.92a.558.558,0,0,1,0,1.062L344.473,365.03a2.042,2.042,0,0,1-1.825,0l-3.322-1.92a.558.558,0,0,1-.027-1.062Z" transform="translate(-328.076 -253.053)"/>
        <path id="Pfad_921" data-name="Pfad 921" class="cls-14" d="M345.595,365.7l65.155-37.636a1.961,1.961,0,0,1,1.825,0l20.493,11.833c.5.286.5.763,0,1.062l-65,37.581a2,2,0,0,1-1.825,0l-20.574-11.778a.558.558,0,0,1-.068-1.062Z" transform="translate(-325.793 -251.744)"/>
        <path id="Pfad_922" data-name="Pfad 922" class="cls-3" d="M403.516,344.573l2.042-1.185c.082,0,.082-.136,0-.191l-2.356-1.362a.34.34,0,0,0-.327,0l-2.042,1.171c-.082,0-.082.136,0,.191l2.356,1.362A.4.4,0,0,0,403.516,344.573Zm-4.085-4.684-2.029,1.185c-.1,0-.082.123,0,.177l2.356,1.362a.4.4,0,0,0,.327,0l2.029-1.185c.1,0,.082-.136,0-.177l-2.369-1.362a.34.34,0,0,0-.259-.014Zm-6.577,3.8-3.459,2c-.082,0-.082.136,0,.191l2.356,1.362a.34.34,0,0,0,.327,0l3.459-1.988c.082,0,.068-.136,0-.191l-2.369-1.362a.368.368,0,0,0-.259-.014Zm3.608-2.083-2.042,1.185c-.1,0-.082.136,0,.191l2.356,1.362a.341.341,0,0,0,.327,0l2.042-1.171c.082,0,.082-.136,0-.191l-2.369-1.362a.368.368,0,0,0-.259-.014Zm-8.006,4.63-2.042,1.171c-.082,0-.082.136,0,.191l2.356,1.362a.4.4,0,0,0,.327,0l2.042-1.185c.082,0,.082-.136,0-.191l-2.356-1.362a.341.341,0,0,0-.272.014Zm-2.982,1.716-2.042,1.185c-.082,0-.082.123,0,.177l2.356,1.362a.354.354,0,0,0,.327,0l2.042-1.185c.082,0,.082-.123,0-.177l-2.356-1.362a.354.354,0,0,0-.272,0Zm9.341,5.542,2.042-1.185c.082,0,.082-.136,0-.177l-2.356-1.362a.354.354,0,0,0-.327,0l-2.042,1.185c-.082,0-.082.123,0,.177l2.356,1.362A.4.4,0,0,0,394.815,353.491Zm-2.982,1.716,2.042-1.171c.1,0,.082-.136,0-.191l-2.356-1.362a.4.4,0,0,0-.327,0l-2.042,1.185c-.082,0-.082.136,0,.191l2.356,1.362a.34.34,0,0,0,.313-.014Zm-2.982,1.729,2.042-1.185c.1,0,.082-.136,0-.191l-2.356-1.362a.354.354,0,0,0-.327,0l-2.042,1.171c-.082,0-.082.136,0,.191l2.369,1.362a.368.368,0,0,0,.3.014Zm-2.982,1.716,2.042-1.171c.1,0,.082-.136,0-.191l-2.356-1.362a.4.4,0,0,0-.327,0l-2.029,1.185c-.1,0-.082.136,0,.191l2.369,1.362a.368.368,0,0,0,.286-.014Zm14.678-12.364,2.042-1.171c.082,0,.082-.136,0-.191l-2.356-1.362a.4.4,0,0,0-.327,0l-2.042,1.185c-.082,0-.082.136,0,.191l2.356,1.362a.34.34,0,0,0,.313-.014Zm-2.723,5.447,4.548-2.628c.1,0,.082-.123,0-.177l-5.732-3.309a.4.4,0,0,0-.327,0l-2.356,1.362c-.082,0-.082.136,0,.191l3.036,1.743c.1,0,.1.15,0,.191L395.1,350.2c-.082,0-.082.136,0,.191l2.356,1.362a.34.34,0,0,0,.327.014Zm-15.264-2.056-2.042,1.171c-.082,0-.082.136,0,.191l2.356,1.362a.34.34,0,0,0,.327,0l2.042-1.171c.082,0,.082-.136,0-.191l-2.356-1.362A.34.34,0,0,0,382.561,349.679Zm-2.982,1.716-2.042,1.171c-.082,0-.082.136,0,.191l2.356,1.362a.4.4,0,0,0,.327,0l2.042-1.185c.082,0,.082-.136,0-.191l-2.356-1.362a.4.4,0,0,0-.34.014Zm-14.9,19.294a.354.354,0,0,0,.327,0l2.042-1.185c.082,0,.082-.123,0-.177l-2.356-1.362a.354.354,0,0,0-.327,0l-2.042,1.185c-.082,0-.082.123,0,.177Zm-8.946-5.528-2.042,1.185c-.1,0-.082.136,0,.177l2.356,1.362a.354.354,0,0,0,.327,0l2.042-1.185c.082,0,.082-.123,0-.177l-2.369-1.362a.327.327,0,0,0-.327,0Zm4.793,4.085a.34.34,0,0,0,.327,0l2.042-1.171c.082,0,.082-.136,0-.191l-2.356-1.362a.4.4,0,0,0-.327,0l-2.042,1.185c-.082,0-.082.136,0,.191Zm9.423,2.533,2.029-1.171c.1,0,.082-.136,0-.191l-2.369-1.362a.4.4,0,0,0-.327,0l-2.029,1.185c-.1,0-.082.136,0,.191l2.369,1.362a.354.354,0,0,0,.313-.055Zm-3.309,1.716a.4.4,0,0,0,.327,0L369,372.309c.1,0,.082-.136,0-.191l-2.369-1.362a.34.34,0,0,0-.327,0l-2.029,1.171c-.1,0-.082.136,0,.191Zm-7.925-10.008-2.042,1.171c-.1,0-.082.136,0,.191l2.356,1.362a.4.4,0,0,0,.327,0l2.029-1.185c.1,0,.082-.136,0-.191l-2.369-1.362a.327.327,0,0,0-.313-.027Zm14.883-8.633-2.042,1.171c-.082,0-.082.136,0,.191l2.356,1.362a.4.4,0,0,0,.327,0l2.042-1.185c.1,0,.082-.136,0-.191l-2.356-1.362A.34.34,0,0,0,373.6,354.853Zm-11.928,6.808-2.029,1.185c-.1,0-.082.136,0,.191l2.369,1.362a.341.341,0,0,0,.327,0l2.029-1.171c.1,0,.082-.136,0-.191L362,361.675a.4.4,0,0,0-.327-.014Zm14.91-8.606-2.042,1.185c-.082,0-.082.136,0,.191l2.356,1.362a.34.34,0,0,0,.327,0l2.042-1.171c.082,0,.082-.136,0-.191l-2.356-1.362a.4.4,0,0,0-.327.041Zm-5.964,3.445-2.042,1.185c-.082,0-.082.136,0,.177l2.369,1.362a.327.327,0,0,0,.313,0l2.042-1.185c.1,0,.082-.123,0-.177l-2.356-1.362a.354.354,0,0,0-.327.054Zm-3.036,1.784-2.029,1.171c-.1,0-.082.136,0,.191l2.369,1.362a.327.327,0,0,0,.313,0l2.042-1.171c.1,0,.082-.136,0-.191l-2.356-1.362A.34.34,0,0,0,367.583,358.284ZM364.6,360l-2.029,1.171c-.1,0-.082.136,0,.191l2.369,1.362a.4.4,0,0,0,.327,0l2.029-1.185c.1,0,.082-.136,0-.191l-2.356-1.362a.4.4,0,0,0-.286.014Zm15.25,2.1,2.029-1.185c.1,0,.082-.136,0-.177l-2.369-1.362a.34.34,0,0,0-.327,0l-2.029,1.185c-.1,0-.082.123,0,.177l2.356,1.362a.354.354,0,0,0,.395,0Zm26.171-26.007-2.029,1.171c-.1,0-.082.136,0,.191l2.356,1.362a.34.34,0,0,0,.327,0l2.029-1.171c.1,0,.082-.136,0-.191l-2.369-1.362a.341.341,0,0,0-.259,0Zm-3.608,2.083-2.029,1.171c-.1,0-.082.136,0,.191l2.356,1.362a.354.354,0,0,0,.327,0l2.029-1.171c.1,0,.082-.136,0-.191l-2.369-1.362a.341.341,0,0,0-.259,0ZM409,334.36l-2.029,1.185c-.1,0-.082.136,0,.177l2.369,1.362a.354.354,0,0,0,.327,0l2.029-1.171c.1,0,.082-.136,0-.191l-2.369-1.362a.4.4,0,0,0-.272.068Zm-15.427,15.918,2.042-1.185c.082,0,.082-.136,0-.177l-2.356-1.362a.354.354,0,0,0-.327,0l-2.042,1.185c-.082,0-.082.123,0,.177l2.356,1.362a.4.4,0,0,0,.381,0Zm18.736-17.633a.354.354,0,0,0-.327,0l-2.029,1.171c-.1,0-.082.136,0,.191l2.369,1.362a.4.4,0,0,0,.327,0l2.029-1.185c.1,0,.082-.136,0-.191Zm-29.48,27.723,2.029-1.171c.1,0,.082-.136,0-.191l-2.356-1.362a.34.34,0,0,0-.327,0l-2.029,1.171c-.1,0-.082.136,0,.191l2.369,1.362a.34.34,0,0,0,.368,0Zm36.547-21.105,2.042-1.171c.1,0,.082-.136,0-.191l-2.356-1.362a.354.354,0,0,0-.327,0L416.7,337.71c-.082,0-.082.136,0,.191l2.369,1.362a.327.327,0,0,0,.368,0Zm-6.345-.218,2.042-1.185c.082,0,.082-.123,0-.177l-2.356-1.362a.354.354,0,0,0-.327,0l-2.042,1.185c-.082,0-.082.123,0,.177l2.356,1.362a.354.354,0,0,0,.381,0Zm2.655-4.453a.34.34,0,0,0-.327,0l-2.042,1.171c-.082,0-.082.136,0,.191l2.356,1.362a.341.341,0,0,0,.327,0l2.042-1.171c.082,0,.082-.136,0-.191Zm.626-.354,5.719,3.3a.354.354,0,0,0,.327,0l2.042-1.185c.1,0,.082-.123,0-.177l-5.719-3.309a.4.4,0,0,0-.327,0l-2.043,1.185a.125.125,0,0,0,.054.191Zm-6.917,3.785-2.042,1.185c-.082,0-.082.136,0,.191l2.356,1.362a.34.34,0,0,0,.327,0l2.042-1.171c.082,0,.082-.136,0-.191l-2.356-1.362a.4.4,0,0,0-.272-.014Zm-22.44,12.963-2.042,1.171c-.082,0-.082.136,0,.191l2.356,1.362a.4.4,0,0,0,.327,0l2.042-1.185c.082,0,.082-.136,0-.191l-2.356-1.362a.34.34,0,0,0-.272.014Zm29.126-10.008a.368.368,0,0,0,.313,0l2.042-1.185c.1,0,.082-.136,0-.191l-2.356-1.362a.354.354,0,0,0-.327,0l-2.029,1.171c-.1,0-.082.136,0,.191Zm-26.144,8.279-2.042,1.185c-.082,0-.082.136,0,.191l2.356,1.362a.341.341,0,0,0,.327,0l2.042-1.171c.082,0,.082-.136,0-.191l-2.356-1.362a.4.4,0,0,0-.272-.013ZM367.6,368.973a.34.34,0,0,0,.327,0l2.042-1.171c.082,0,.082-.136,0-.191l-2.356-1.362a.341.341,0,0,0-.327,0l-2.042,1.171c-.082,0-.082.136,0,.191Zm-4.48-4.221-2.042,1.185c-.1,0-.082.123,0,.177l2.356,1.362a.354.354,0,0,0,.327,0l2.043-1.185c.082,0,.082-.123,0-.177l-2.356-1.362a.354.354,0,0,0-.272,0Zm7.789,2.505,2.042-1.171c.082,0,.082-.136,0-.191l-2.356-1.362a.4.4,0,0,0-.327,0l-2.042,1.185c-.1,0-.082.136,0,.191l2.356,1.362a.34.34,0,0,0,.381-.014Zm2.982-1.716,2.042-1.185c.082,0,.082-.136,0-.191L373.56,362.8a.327.327,0,0,0-.313,0l-2.042,1.171c-.1,0-.082.136,0,.191l2.356,1.362a.4.4,0,0,0,.381.014Zm2.982-1.729,2.029-1.171c.1,0,.082-.136,0-.191l-2.369-1.362a.368.368,0,0,0-.313,0l-2.042,1.185c-.1,0-.082.136,0,.191l2.356,1.362a.354.354,0,0,0,.395-.014Zm-10.648-.79-2.042,1.171c-.1,0-.082.136,0,.191l2.356,1.362a.34.34,0,0,0,.327,0l2.042-1.171c.082,0,.082-.136,0-.191l-2.369-1.362a.327.327,0,0,0-.313,0Zm2.982-1.729-2.042,1.185c-.1,0-.082.136,0,.191l2.356,1.362a.354.354,0,0,0,.327,0l2.029-1.171c.1,0,.082-.136,0-.191l-2.369-1.362a.367.367,0,0,0-.368,0Zm11.914-6.876-2.042,1.171c-.082,0-.082.136,0,.191l2.369,1.362a.327.327,0,0,0,.313,0l2.042-1.171c.1,0,.082-.136,0-.191l-2.356-1.362a.34.34,0,0,0-.395.014Zm-3.05,1.8-2.029,1.185c-.1,0-.082.123,0,.177l2.369,1.362a.368.368,0,0,0,.313,0l2.042-1.185c.1,0,.082-.136,0-.177l-2.356-1.362a.354.354,0,0,0-.34,0Zm5.964-3.445-2.042,1.185c-.082,0-.082.136,0,.191l2.356,1.362a.4.4,0,0,0,.327,0l2.042-1.171c.1,0,.082-.136,0-.191l-2.356-1.362a.4.4,0,0,0-.327-.082ZM372.1,359.66l-2.029,1.171c-.1,0-.082.136,0,.191l2.369,1.362a.4.4,0,0,0,.327,0L374.8,361.2c.1,0,.082-.136,0-.191l-2.369-1.362a.34.34,0,0,0-.327-.054Zm2.982-1.729-2.029,1.185c-.1,0-.082.136,0,.191l2.369,1.362a.341.341,0,0,0,.327,0l2.029-1.171c.1,0,.082-.136,0-.191l-2.356-1.362a.4.4,0,0,0-.34-.082ZM372.92,370.09l2.029-1.185c.1,0,.082-.136,0-.177l-2.356-1.362a.354.354,0,0,0-.327,0l-2.029,1.171c-.1,0-.082.136,0,.191l2.369,1.362a.4.4,0,0,0,.313-.068Zm-17.5-1.77-2.356-1.362a.341.341,0,0,0-.327,0l-2.042,1.171c-.1,0-.082.136,0,.191l2.356,1.362a.354.354,0,0,0,.327,0l2.042-1.171c.1-.123.1-.2,0-.259Zm4.466,1.362-2.356-1.362a.34.34,0,0,0-.327,0l-3.145,1.811c-.082,0-.082.136,0,.191l2.356,1.362a.341.341,0,0,0,.327,0l3.145-1.811c.1-.177.1-.259,0-.313Zm-8.088-3.935-2.356-1.362a.4.4,0,0,0-.327,0l-2.519,1.362c-.082,0,0,.136,0,.177l2.369,1.362a.327.327,0,0,0,.313,0l2.519-1.443c.1-.1.1-.1,0-.218Zm1.92-1.117a.4.4,0,0,0,.327,0l2.042-1.185c.082,0,.082-.136,0-.191l-2.356-1.362a.34.34,0,0,0-.327,0l-2.042,1.171c-.082,0-.082.136,0,.191Zm10.321,6.549-2.356-1.362a.34.34,0,0,0-.327,0l-3.922,2.26c-.1,0-.082.136,0,.191l2.356,1.362a.354.354,0,0,0,.327,0l3.922-2.26c.1-.177.1-.259,0-.313ZM366,373.9l-2.369-1.362a.368.368,0,0,0-.313,0l-2.546,1.375c-.082,0-.082.136,0,.177l2.356,1.362a.354.354,0,0,0,.327,0l2.519-1.443c.123-.1.109-.1.027-.191Zm9.886-22.113a.4.4,0,0,0,.327,0l2.043-1.185c.082,0,.082-.136,0-.177l-2.356-1.362a.354.354,0,0,0-.327,0l-2.042,1.171c-.082,0-.082.136,0,.191Zm-5.964,3.445a.4.4,0,0,0,.327,0l2.042-1.185c.082,0,.082-.136,0-.191l-2.356-1.362a.34.34,0,0,0-.327,0l-2.042,1.171c-.082,0-.082.136,0,.191Zm-13.235,7.557a.34.34,0,0,0,.327,0l2.042-1.171c.082,0,.082-.136,0-.191l-2.356-1.362a.4.4,0,0,0-.327,0l-2.043,1.185c-.082,0-.082.136,0,.191Zm16.2-9.354a.34.34,0,0,0,.327,0l2.042-1.171c.082,0,.082-.136,0-.191l-2.356-1.362a.4.4,0,0,0-.327,0l-2.042,1.185c-.082,0-.082.136,0,.191Zm-5.964,3.445a.4.4,0,0,0,.327,0l2.042-1.171c.082,0,.082-.136,0-.191l-2.356-1.362a.4.4,0,0,0-.327,0l-2.043,1.185c-.082,0-.082.136,0,.191Zm.694,17.157a.4.4,0,0,0-.327,0l-3.132,1.825c-.1,0-.082.123,0,.177l2.369,1.362a.354.354,0,0,0,.327,0l3.132-1.811c.082,0,.082-.136,0-.191Zm-4.97-14.692a.341.341,0,0,0,.327,0l2.042-1.171c.082,0,.082-.136,0-.191l-2.356-1.362a.34.34,0,0,0-.327,0l-2.042,1.171c-.082,0-.082.136,0,.191Zm-2.982,1.716a.4.4,0,0,0,.327,0l2.042-1.185c.082,0,.082-.136,0-.177l-2.356-1.362a.354.354,0,0,0-.327,0l-2.042,1.185c-.082,0-.082.123,0,.177Zm63.18-18.913a.341.341,0,0,0-.327,0l-5.024,2.9c-.082,0-.082.123,0,.177l2.369,1.362a.327.327,0,0,0,.313,0l5.024-2.9c.1,0,.082-.136,0-.191Zm-6.59,3.813a.354.354,0,0,0-.327,0l-2.042,1.185c-.082,0-.082.123,0,.177l2.369,1.362a.327.327,0,0,0,.313,0l2.042-1.185c.1,0,.082-.123,0-.177Zm-40.386,22.331,2.042-1.171c.1,0,.082-.136,0-.191l-2.356-1.362a.354.354,0,0,0-.327,0l-2.029,1.171c-.1,0-.082.136,0,.191l2.369,1.362a.327.327,0,0,0,.313,0Zm34.436-18.886a.354.354,0,0,0-.327,0l-2.029,1.171c-.1,0-.082.136,0,.191l2.369,1.362a.4.4,0,0,0,.327,0l2.029-1.185c.1,0,.082-.136,0-.191Zm15.536-8.96a.4.4,0,0,0-.327,0l-2.042,1.185c-.082,0-.082.136,0,.191l2.356,1.362a.341.341,0,0,0,.327,0l2.042-1.171c.082,0,.082-.136,0-.191Zm5.338-.368-5.719-3.309a.4.4,0,0,0-.327,0l-2.043,1.171c-.1,0-.082.136,0,.191l5.719,3.309a.4.4,0,0,0,.327,0l2.042-1.185c.1-.055.1-.136,0-.191Zm-32.012,15.754a.4.4,0,0,0-.327,0l-2.505,1.457c-.082,0-.082.136,0,.191l2.356,1.362a.354.354,0,0,0,.327,0l2.505-1.443c.1,0,.082-.136,0-.191Zm7.53-4.357a.354.354,0,0,0-.327,0l-3.132,1.811c-.082,0-.082.136,0,.191l2.356,1.362a.354.354,0,0,0,.327,0l3.132-1.811c.1,0,.082-.136,0-.191Zm-14.433,8.333a.4.4,0,0,0-.327,0L375.153,369.5c-.082,0-.082.136,0,.191l2.356,1.362a.34.34,0,0,0,.327,0l16.789-9.695c.1,0,.082-.136,0-.191Zm-17.7,10.24a.34.34,0,0,0-.327,0l-2.574,1.443c-.1,0-.082.136,0,.191l2.356,1.362a.34.34,0,0,0,.327,0l2.505-1.443c.082,0,.082-.136,0-.191Zm21.187-12.255a.341.341,0,0,0-.327,0l-2.519,1.443c-.082,0-.082.136,0,.191l2.356,1.362a.34.34,0,0,0,.327,0l2.519-1.443c.082,0,.082-.136,0-.191Zm-24.632,14.229a.354.354,0,0,0-.327,0l-2.519,1.457c-.082,0-.082.123,0,.177l2.356,1.362a.354.354,0,0,0,.327,0l2.519-1.457c.082,0,.082-.123,0-.177ZM402.659,353.8a.34.34,0,0,0-.327,0l-2.519,1.443c-.082,0-.082.136,0,.191l2.356,1.362a.4.4,0,0,0,.327,0l2.519-1.457c.082,0,.082-.136,0-.191Zm10.662-6.155a.341.341,0,0,0-.327,0l-2.029,1.171c-.1,0-.082.136,0,.191l2.369,1.362a.327.327,0,0,0,.313,0l2.042-1.171c.1,0,.082-.136,0-.191Zm6.536-4.739,2.042-1.185c.082,0,.082-.136,0-.191l-2.356-1.362a.34.34,0,0,0-.327,0l-2.042,1.171c-.082,0-.082.136,0,.191l2.356,1.362a.4.4,0,0,0,.3.041Zm-13.331-.1,2.042-1.171c.082,0,.082-.136,0-.191l-2.356-1.362a.34.34,0,0,0-.327,0l-2.042,1.171c-.082,0-.082.136,0,.191l2.356,1.362a.341.341,0,0,0,.3.027ZM399.717,354.5l5.964-3.445c.082,0,.082-.123,0-.177l-2.356-1.362a.354.354,0,0,0-.327,0l-5.964,3.445c-.082,0-.082.136,0,.191l2.356,1.362a.34.34,0,0,0,.354.014Zm16.775-9.872a.4.4,0,0,0,.327,0l2.042-1.171c.082,0,.082-.136,0-.191l-2.356-1.362a.4.4,0,0,0-.327,0l-2.042,1.185c-.082,0-.082.136,0,.191Zm-3.036-1.947,2.029-1.171c.1,0,.082-.136,0-.191l-2.356-1.362a.4.4,0,0,0-.327,0l-2.029,1.185c-.1,0-.082.136,0,.191l2.369,1.362a.34.34,0,0,0,.34.014Zm-16.694,13.535,2.042-1.185c.082,0,.082-.136,0-.191l-2.356-1.362a.34.34,0,0,0-.327,0l-2.042,1.171c-.082,0-.082.136,0,.191l2.356,1.362a.394.394,0,0,0,.327.014Zm13.167-7.8a.341.341,0,0,0,.327,0l2.042-1.171c.082,0,.082-.136,0-.191l-2.356-1.362a.34.34,0,0,0-.327,0l-2.042,1.171c-.082,0-.082.136,0,.191ZM381.853,364.82l2.042-1.185c.1,0,.082-.136,0-.191l-2.356-1.362a.354.354,0,0,0-.327,0l-2.042,1.171c-.082,0-.082.136,0,.191l2.356,1.362a.4.4,0,0,0,.327.055Zm2.982-1.729,2.042-1.171c.082,0,.082-.136,0-.191l-2.356-1.362a.4.4,0,0,0-.327,0l-2.042,1.185c-.082,0-.082.136,0,.191l2.356,1.362a.34.34,0,0,0,.327.027Zm-5.964,3.445,2.042-1.185c.1,0,.082-.123,0-.177l-2.356-1.362a.4.4,0,0,0-.327,0L376.188,365c-.082,0-.082.136,0,.177l2.369,1.362a.368.368,0,0,0,.313.041Zm11.928-6.89,2.042-1.171c.082,0,.082-.136,0-.191l-2.356-1.362a.34.34,0,0,0-.327,0l-2.042,1.171c-.082,0-.082.136,0,.191l2.356,1.362a.341.341,0,0,0,.327.041Zm-2.982,1.729,2.042-1.185c.082,0,.082-.136,0-.191l-2.356-1.362a.4.4,0,0,0-.327,0l-2.042,1.171c-.082,0-.082.136,0,.191l2.356,1.362a.4.4,0,0,0,.327.055Zm5.964-3.445,2.042-1.185c.082,0,.082-.123,0-.177l-2.356-1.362a.354.354,0,0,0-.327,0l-2.042,1.185c-.082,0-.082.136,0,.177l2.356,1.362a.354.354,0,0,0,.327.041ZM407.4,332.467a.4.4,0,0,0,.327,0l2.029-1.185c.1,0,.082-.136,0-.191l-.64-.354a.327.327,0,0,0-.313,0l-2.042,1.185c-.1,0-.082.123,0,.177ZM392.732,342a.327.327,0,0,0,.313,0l2.042-1.185c.1,0,.082-.136,0-.177l-2.356-1.362a.354.354,0,0,0-.327,0l-2.042,1.185c-.082,0-.082.123,0,.177Zm5.95-3.431a.4.4,0,0,0,.327,0l2.042-1.171c.082,0,.082-.136,0-.191l-2.356-1.362a.4.4,0,0,0-.327,0l-2.042,1.185c-.082,0-.082.136,0,.191Zm-9.6,5.542a.341.341,0,0,0,.327,0l2.042-1.171c.082,0,.082-.136,0-.191l-2.356-1.362a.4.4,0,0,0-.327,0l-2.042,1.185c-.082,0-.082.136,0,.191Zm6.618-3.826a.34.34,0,0,0,.327,0l2.042-1.171c.1,0,.082-.136,0-.191l-2.356-1.362a.354.354,0,0,0-.327,0l-2.043,1.171c-.082,0-.082.136,0,.191Zm-12.582,7.258a.354.354,0,0,0,.327,0l2.043-1.171c.082,0,.082-.136,0-.191l-2.356-1.362a.4.4,0,0,0-.327,0L380.763,346c-.082,0-.082.136,0,.177Zm2.982-1.716a.4.4,0,0,0,.327,0l2.042-1.185c.082,0,.082-.136,0-.191l-2.356-1.362a.34.34,0,0,0-.327,0l-2.042,1.171c-.082,0-.082.136,0,.191Zm15.332-9.845a.341.341,0,0,0,.327,0l2.042-1.171c.082,0,.082-.136,0-.191l-.626-.368a.341.341,0,0,0-.327,0l-2.042,1.171c-.082,0-.082.136,0,.191Zm8.946-5.161a.354.354,0,0,0,.327,0l2.029-1.171c.1,0,.082-.136,0-.191l-.64-.368a.327.327,0,0,0-.313,0l-2.042,1.171c-.1,0-.082.136,0,.191Zm4.956,2.859a.327.327,0,0,0,.313,0l2.042-1.171c.1,0,.082-.136,0-.191l-2.356-1.362a.4.4,0,0,0-.327,0l-2.043,1.185c-.082,0-.082.136,0,.191Zm7.448,7.557,2.042-1.171c.082,0,.082-.136,0-.191l-2.356-1.362a.4.4,0,0,0-.327,0L420.1,339.7c-.082,0-.082.136,0,.191l2.356,1.362a.341.341,0,0,0,.354-.014Zm-18.369-6.985a.354.354,0,0,0,.327,0l2.042-1.185c.082,0,.068-.123,0-.177l-.626-.368a.34.34,0,0,0-.327,0l-2.042,1.171c-.1,0-.082.136,0,.191Zm-24.278,14.978a.34.34,0,0,0,.327,0l2.1-1.185c.082,0,.082-.136,0-.191l-2.356-1.362a.34.34,0,0,0-.327,0l-2.042,1.171c-.082,0-.082.136,0,.191Z" transform="translate(-325.314 -251.304)"/>
        <path id="Pfad_923" data-name="Pfad 923" class="cls-14" d="M381.181,360.155,401.32,348.54a2.4,2.4,0,0,1,2.192,0l11.547,6.658a.667.667,0,0,1,0,1.266L394.8,368.121a2.478,2.478,0,0,1-2.192,0l-11.424-6.6a.681.681,0,1,1,0-1.362Z" transform="translate(-313.041 -244.352)"/>
      </g>
      <g id="freepik--Mobile--inject-1--inject-2" transform="translate(217.025 123.775)">
        <rect id="Rechteck_951" data-name="Rechteck 951" class="cls-3" width="52.287" height="97.997" rx="2.88"/>
        <rect id="Rechteck_952" data-name="Rechteck 952" class="cls-4" width="49.305" height="85.933" rx="1.89" transform="translate(1.484 6.032)"/>
        <path id="Pfad_924" data-name="Pfad 924" class="cls-9" d="M265.628,378.283l-.2-.218h0a15.863,15.863,0,0,0-22.031-.327l-.245.232-.123.123a15.863,15.863,0,1,0,22.644.218Zm-8.946,26.334a14.848,14.848,0,0,1-1.743.191h-1.471a14.836,14.836,0,0,1-1.743-.191,15.55,15.55,0,0,1-13.058-15.169v-.327a15.564,15.564,0,0,1,4.684-10.893L243.6,378a15.482,15.482,0,0,1,8.17-4,14.808,14.808,0,0,1,1.743-.177h1.471a14.822,14.822,0,0,1,1.743.177,15.5,15.5,0,0,1,8.456,4.316l.245.245a15.564,15.564,0,0,1,4.357,10.607v.327a15.55,15.55,0,0,1-13.1,15.06Z" transform="translate(-228.06 -341.914)"/>
        <path id="Pfad_925" data-name="Pfad 925" class="cls-9" d="M254.4,406.019a16.585,16.585,0,0,1-11.724-28.309l.136-.123.259-.259a16.571,16.571,0,0,1,23.012.34h0l.218.218h0a16.585,16.585,0,0,1-11.9,28.132Zm0-31.4h-.694a13.942,13.942,0,0,0-1.675.163,14.787,14.787,0,0,0-7.748,3.813l-.232.232a14.692,14.692,0,0,0-4.466,10.43v.313a14.774,14.774,0,0,0,12.445,14.461,13.98,13.98,0,0,0,1.675.177,11.824,11.824,0,0,0,1.362,0,13.953,13.953,0,0,0,1.675-.177h0A14.774,14.774,0,0,0,269.19,389.57v-.327a14.706,14.706,0,0,0-4.153-10.1l-.231-.232a14.611,14.611,0,0,0-8.061-4.085,13.942,13.942,0,0,0-1.675-.163Z" transform="translate(-228.26 -342.131)"/>
        <path id="Pfad_926" data-name="Pfad 926" class="cls-9" d="M264.774,376.988l-.218-.218h0l-.259-.259-.245.259-.245.232a15.27,15.27,0,0,1-2.9,2.124l-.286.163a14.978,14.978,0,0,1-4.589,1.58h-.327a15.492,15.492,0,0,1-2.26.177,14.615,14.615,0,0,1-2.887-.286l-.327-.068a14.977,14.977,0,0,1-4.48-1.757l-.272-.163a15.88,15.88,0,0,1-2.723-2.138l-.232-.245-.245-.259-.272.245-.245.245-.272.259.259.259.218.218h0a16.025,16.025,0,0,0,2.941,2.328l.3.177A15.741,15.741,0,0,0,250,381.726l.34.068a16.448,16.448,0,0,0,3.064.286,15.7,15.7,0,0,0,2.41-.177h.327a15.688,15.688,0,0,0,4.916-1.675l.3-.163a16.339,16.339,0,0,0,3.145-2.315l.259-.245.259-.245Z" transform="translate(-226.934 -340.945)"/>
        <path id="Pfad_927" data-name="Pfad 927" class="cls-9" d="M264.757,394.135l-.245-.232a16.871,16.871,0,0,0-3.159-2.328l-.3-.163a16.082,16.082,0,0,0-4.9-1.675h-.34a17.624,17.624,0,0,0-2.41-.177,16.575,16.575,0,0,0-3.064.3l-.34.068a16.07,16.07,0,0,0-4.793,1.852l-.3.177a16.638,16.638,0,0,0-2.941,2.328h0l-.2.2-.259.272.272.259.245.232.272.259.245-.272.231-.232a14.639,14.639,0,0,1,2.723-2.138l.272-.177a15.28,15.28,0,0,1,4.48-1.757l.327-.068a15.715,15.715,0,0,1,2.887-.272,15.494,15.494,0,0,1,2.26.163h.327a14.977,14.977,0,0,1,4.589,1.593l.286.15a15.334,15.334,0,0,1,2.9,2.138l.245.232.245.245.259-.245h0l.218-.218.245-.259Z" transform="translate(-226.93 -336.088)"/>
        <path id="Pfad_928" data-name="Pfad 928" class="cls-9" d="M258.236,377.971c-1.579-3.132-3.717-4.861-6-4.861s-4.425,1.729-6,4.861a28.2,28.2,0,0,0,0,22.753c1.58,3.132,3.717,4.847,6,4.847s4.425-1.716,6-4.847a28.2,28.2,0,0,0,0-22.753Zm-6,26.538c-1.974,0-3.84-1.552-5.256-4.371a27.043,27.043,0,0,1,0-21.582c1.362-2.819,3.282-4.371,5.256-4.371s3.84,1.552,5.256,4.371a27.042,27.042,0,0,1,0,21.582C256.071,402.916,254.206,404.51,252.231,404.51Z" transform="translate(-226.088 -342.037)"/>
        <path id="Pfad_929" data-name="Pfad 929" class="cls-9" d="M270,384.63H238.6a.585.585,0,0,0,0,1.157H270a.586.586,0,0,0,0-1.157Z" transform="translate(-228.158 -337.871)"/>
        <path id="Pfad_930" data-name="Pfad 930" class="cls-9" d="M250.714,405.061v-31.4a.573.573,0,0,0-1.144,0v31.4a.572.572,0,0,0,.572.531.558.558,0,0,0,.572-.531Z" transform="translate(-224.012 -342.03)"/>
        <path id="Pfad_931" data-name="Pfad 931" class="cls-14" d="M247.751,351.44h7.68a.817.817,0,0,1,.831.776.8.8,0,0,1-.831.776h-7.68a.8.8,0,0,1-.831-.776A.817.817,0,0,1,247.751,351.44Z" transform="translate(-224.97 -349.874)"/>
        <path id="Pfad_932" data-name="Pfad 932" class="cls-14" d="M257.406,351.44a.762.762,0,0,1,.776.776.776.776,0,0,1-.776.776.79.79,0,0,1-.776-.776.776.776,0,0,1,.776-.776Z" transform="translate(-221.459 -349.874)"/>
        <circle id="Ellipse_25" data-name="Ellipse 25" class="cls-14" cx="0.776" cy="0.776" r="0.776" transform="translate(38.289 1.566)"/>
        <circle id="Ellipse_26" data-name="Ellipse 26" class="cls-14" cx="0.776" cy="0.776" r="0.776" transform="translate(13.399 1.566)"/>
        <path id="Pfad_933" data-name="Pfad 933" class="cls-14" d="M243.706,351.44a.776.776,0,0,1,.776.776.79.79,0,0,1-.776.776.776.776,0,0,1-.776-.776.763.763,0,0,1,.776-.776Z" transform="translate(-226.413 -349.874)"/>
      </g>
      <g id="freepik--Computer--inject-1--inject-2">
        <g id="freepik--Screen--inject-1--inject-2" transform="translate(32.971)">
          <path id="Pfad_934" data-name="Pfad 934" class="cls-14" d="M131.746,374.875l-15.128-8.742a3.949,3.949,0,0,1-2.328-3.254v-2.1l15.686-8.851a3.322,3.322,0,0,0,1.511-2.6V330.69l26.4,15.25v18.641a3.322,3.322,0,0,1-1.5,2.614l-13.344,7.68A12.4,12.4,0,0,1,131.746,374.875Z" transform="translate(-88.882 -233.603)"/>
          <path id="Pfad_935" data-name="Pfad 935" class="cls-15" d="M141.65,364.6v2.1l4.834-2.791A3.336,3.336,0,0,0,148,361.288V342.66l-5.038-2.9c-.109,1.28-.218,2.6-.327,3.894l3.54,2.029v14.57a3.309,3.309,0,0,1-1.511,2.6Z" transform="translate(-78.987 -230.323)"/>
          <path id="Pfad_936" data-name="Pfad 936" class="cls-3" d="M156.109,362.73a3.35,3.35,0,0,1-1.511,2.614l-11.52,6.631a12.486,12.486,0,0,1-11.288,0l-15.169-8.742c-3.118-1.8-3.118-4.711,0-6.509l11.533-6.645a3.309,3.309,0,0,0,1.5-2.6V332.91l26.457,15.264Z" transform="translate(-88.884 -232.8)"/>
          <path id="Pfad_937" data-name="Pfad 937" class="cls-13" d="M122.21,351.85h0l3.077-1.77a3.309,3.309,0,0,0,1.5-2.6V332.91l26.457,15.264V362.73a3.35,3.35,0,0,1-1.511,2.614l-3.05,1.729Z" transform="translate(-86.017 -232.8)"/>
          <path id="Pfad_938" data-name="Pfad 938" class="cls-13" d="M114.29,352.79v2.1a3.99,3.99,0,0,0,2.328,3.268l15.128,8.728a11.165,11.165,0,0,0,5.447,1.362v-2.083a11.165,11.165,0,0,1-5.447-1.362l-15.128-8.755a3.949,3.949,0,0,1-2.328-3.254Z" transform="translate(-88.882 -225.611)"/>
          <path id="Pfad_939" data-name="Pfad 939" class="cls-3" d="M95.63,262.944v81.045a4.207,4.207,0,0,0,1.879,3.268L200.844,406.8l.177.082h0c.926.408,1.648-.1,1.648-1.2v1.593a3.5,3.5,0,0,0,1.77-.395,4.085,4.085,0,0,0,1.756-3.2V322.652a4.167,4.167,0,0,0-1.879-3.254L101.049,259.854a4.085,4.085,0,0,0-3.649-.068,3.99,3.99,0,0,0-1.743,2.86A2.635,2.635,0,0,0,95.63,262.944Z" transform="translate(-95.63 -259.389)"/>
          <path id="Pfad_940" data-name="Pfad 940" class="cls-13" d="M95.63,262.35V343.4a4.207,4.207,0,0,0,1.879,3.268l103.335,59.545.177.082h0c.926.408,1.648-.1,1.648-1.2V324.1a4.18,4.18,0,0,0-1.879-3.268L97.5,261.288c-.94-.545-1.716-.191-1.852.763A2.639,2.639,0,0,0,95.63,262.35Z" transform="translate(-95.63 -258.794)"/>
          <path id="Pfad_941" data-name="Pfad 941" class="cls-14" d="M174.7,368.877v-5.515l3.527-2.042v5.515a4.085,4.085,0,0,1-1.757,3.2,3.5,3.5,0,0,1-1.77.395,2.206,2.206,0,0,1-.422,0h-.422l-.327-.082h-.109l-.313-.136C173.981,370.484,174.7,369.98,174.7,368.877Z" transform="translate(-67.61 -222.526)"/>
          <path id="Pfad_942" data-name="Pfad 942" class="cls-3" d="M95.63,317.48v5.528a4.208,4.208,0,0,0,1.879,3.268l103.335,59.545.177.082h0c.926.408,1.648-.1,1.648-1.2V379.19Z" transform="translate(-95.63 -238.38)"/>
          <path id="Pfad_943" data-name="Pfad 943" class="cls-14" d="M173.88,306.546a3.812,3.812,0,0,1,.545,1.852v75.544l3.54-2.042V306.342a3.813,3.813,0,0,0-.545-1.852Z" transform="translate(-67.331 -243.078)"/>
          <path id="Pfad_944" data-name="Pfad 944" class="cls-4" d="M198.256,388.659V323.736a2.492,2.492,0,0,0-1.13-1.961L99.347,265.43c-.613-.354-1.117-.068-1.117.654v64.923a2.492,2.492,0,0,0,1.13,1.961L197.14,389.3C197.752,389.667,198.256,389.367,198.256,388.659Z" transform="translate(-94.69 -257.258)"/>
          <path id="Pfad_945" data-name="Pfad 945" class="cls-9" d="M122.15,307.555a42.919,42.919,0,0,0,5.106,19.39c3.3,6.291,7.68,11.234,12.337,13.916s9.028,2.8,12.255.313,5.106-7.285,5.106-13.494A42.919,42.919,0,0,0,151.9,308.25c0-.082-.1-.163-.136-.259l-.272-.5a33.837,33.837,0,0,0-11.846-13.126c-4.643-2.723-9.014-2.791-12.255-.327h0l-.231.177C123.879,296.771,122.15,301.441,122.15,307.555Zm.368.449v-.49c0-6,1.865-10.43,4.779-12.772a1.773,1.773,0,0,1,.272-.2,9.532,9.532,0,0,1,9.3-.967,16.537,16.537,0,0,1,1.92.844l.8.436.8.49a22.621,22.621,0,0,1,1.92,1.362,36.491,36.491,0,0,1,8.932,11.016l.272.5a42.334,42.334,0,0,1,5.133,18.995v.49c-.082,11.152-6.277,16.871-14.338,13.943a16.529,16.529,0,0,1-1.92-.844l-.8-.436-.8-.49a18.567,18.567,0,0,1-1.92-1.362C128.754,332.133,122.613,319.265,122.518,308Z" transform="translate(-86.039 -247.505)"/>
          <path id="Pfad_946" data-name="Pfad 946" class="cls-9" d="M126.908,327.616a44.771,44.771,0,0,1-5.338-20.261c0-6.318,1.811-11.261,5.106-13.916h0l.231-.191h0c3.445-2.574,8.006-2.437,12.854.354,4.643,2.723,9.069,7.571,12.459,13.766l.286.517.136.272a44.825,44.825,0,0,1,5.338,20.275c0,6.495-1.893,11.492-5.338,14.093s-8.02,2.492-12.881-.313S130.325,334.247,126.908,327.616Zm12.119-31.862a16.219,16.219,0,0,0-1.825-.8,9.055,9.055,0,0,0-8.878.912l-.245.191c-2.9,2.342-4.521,6.672-4.562,12.187v.477c.082,10.648,5.841,22.876,13.684,29.1h0a20.611,20.611,0,0,0,1.838,1.362,15.773,15.773,0,0,0,1.525.885,15.368,15.368,0,0,0,1.838.8c7.843,2.846,13.616-2.723,13.616-13.29a1.481,1.481,0,0,0,0-.245,1.357,1.357,0,0,0,0-.231,40.155,40.155,0,0,0-4.9-18.11,5.321,5.321,0,0,0-.259-.477A34.613,34.613,0,0,0,142.349,298q-.926-.722-1.838-1.362l-.763-.477Z" transform="translate(-86.249 -247.808)"/>
          <path id="Pfad_947" data-name="Pfad 947" class="cls-9" d="M125.61,293.408l.231-.177h0l.286-.191.286.517c.082.177.177.34.259.49a41.335,41.335,0,0,0,3.186,4.97l.313.422a30.854,30.854,0,0,0,5.052,5.229l.354.286a21.427,21.427,0,0,0,2.478,1.675,15.956,15.956,0,0,0,3.186,1.334l.354.109a9.994,9.994,0,0,0,4.916.259l.313-.068a8.415,8.415,0,0,0,2.968-1.362l.259-.2.272-.218.3.531.272.517.286.531-.272.232-.245.191h0a8.877,8.877,0,0,1-3.241,1.539,2.857,2.857,0,0,1-.327.082,10.812,10.812,0,0,1-5.27-.313l-.368-.122a17.513,17.513,0,0,1-3.377-1.525,23.527,23.527,0,0,1-2.642-1.77l-.368-.3a32.871,32.871,0,0,1-5.447-5.569l-.34-.436a44.536,44.536,0,0,1-3.459-5.447c-.1-.163-.177-.34-.272-.517l-.286-.545Z" transform="translate(-84.911 -247.219)"/>
          <path id="Pfad_948" data-name="Pfad 948" class="cls-9" d="M125.588,317.434l.272-.191a8.728,8.728,0,0,1,3.459-1.362h.34a11.493,11.493,0,0,1,5.447.667l.368.136a17.26,17.26,0,0,1,2.642,1.266,22.959,22.959,0,0,1,3.363,2.369,3.544,3.544,0,0,1,.381.313,34.886,34.886,0,0,1,5.27,5.76l.327.463a47.656,47.656,0,0,1,3.241,5.27h0l.245.463.272.545-.286.2-.272.191-.3.2-.272-.558c-.082-.136-.163-.3-.259-.49a43.033,43.033,0,0,0-2.968-4.847l-.313-.422a32.356,32.356,0,0,0-4.929-5.447l-.34-.3a23.151,23.151,0,0,0-3.186-2.247,16.483,16.483,0,0,0-2.492-1.185l-.34-.136a10.893,10.893,0,0,0-5.052-.586h-.313a8.443,8.443,0,0,0-3.186,1.28l-.259.191-.286.2-.286-.531v-.082l-.231-.449-.272-.545Z" transform="translate(-84.875 -238.988)"/>
          <path id="Pfad_949" data-name="Pfad 949" class="cls-9" d="M128.17,312.051a63.152,63.152,0,0,0,2.628,18.192c1.757,5.6,4.085,9.531,6.618,10.893s4.861.286,6.6-3.309,2.628-8.864,2.628-15.141a62.635,62.635,0,0,0-2.628-18.192c-1.743-5.6-4.085-9.531-6.6-10.893s-4.861-.286-6.618,3.3S128.17,305.72,128.17,312.051Zm3.472,17.7a59.911,59.911,0,0,1-2.478-17.238c0-5.964.885-11.084,2.478-14.379s3.608-4.33,5.773-3.077,4.207,4.711,5.773,9.749A59.913,59.913,0,0,1,145.64,322.1c0,5.964-.871,11.07-2.465,14.379s-3.608,4.33-5.773,3.077S133.195,334.845,131.642,329.753Z" transform="translate(-83.862 -247.222)"/>
          <path id="Pfad_950" data-name="Pfad 950" class="cls-9" d="M122.449,303.022l34.5,19.921a1.525,1.525,0,0,1,.585,1.185c0,.422-.259.681-.585.5l-34.5-19.935a1.511,1.511,0,0,1-.6-1.171C121.85,303.022,122.122,302.8,122.449,303.022Z" transform="translate(-86.148 -243.639)"/>
          <path id="Pfad_951" data-name="Pfad 951" class="cls-9" d="M134.5,339.892v-46.01c0-.436.313-.613.64-.422a1.539,1.539,0,0,1,.626,1.144v46.023c0,.422-.313.6-.626.422A1.511,1.511,0,0,1,134.5,339.892Z" transform="translate(-81.573 -247.094)"/>
        </g>
        <g id="freepik--Keyboard--inject-1--inject-2" transform="translate(0 121.181)">
          <g id="freepik--keyboard--inject-1--inject-2-2" data-name="freepik--keyboard--inject-1--inject-2">
            <path id="Pfad_952" data-name="Pfad 952" class="cls-4" d="M71.422,363.574a.994.994,0,0,1,.6-.844l24.264-14a3.172,3.172,0,0,1,2.887,0l74.033,42.81a.994.994,0,0,1,.6.831v2.546a.994.994,0,0,1-.6.844l-24.251,14a3.172,3.172,0,0,1-2.887,0L72.021,367.019a.994.994,0,0,1-.6-.831C71.408,365.875,71.422,363.874,71.422,363.574Z" transform="translate(-71.416 -348.385)"/>
            <path id="Pfad_953" data-name="Pfad 953" class="cls-16" d="M71.422,363.574a.994.994,0,0,1,.6-.844l24.264-14a3.172,3.172,0,0,1,2.887,0l74.033,42.81a.994.994,0,0,1,.6.831v2.546a.994.994,0,0,1-.6.844l-24.251,14a3.172,3.172,0,0,1-2.887,0L72.021,367.019a.994.994,0,0,1-.6-.831C71.408,365.875,71.422,363.874,71.422,363.574Z" transform="translate(-71.416 -348.385)"/>
            <path id="Pfad_954" data-name="Pfad 954" class="cls-4" d="M148.952,407.16,173.2,393.217a.885.885,0,0,0,0-1.675L99.17,348.732a3.172,3.172,0,0,0-2.887,0l-24.264,14a.885.885,0,0,0,0,1.675l74.046,42.742a3.213,3.213,0,0,0,2.887.013Z" transform="translate(-71.414 -348.385)"/>
            <path id="Pfad_955" data-name="Pfad 955" class="cls-15" d="M148.952,407.16,173.2,393.217a.885.885,0,0,0,0-1.675L99.17,348.732a3.172,3.172,0,0,0-2.887,0l-24.264,14a.885.885,0,0,0,0,1.675l74.046,42.742a3.213,3.213,0,0,0,2.887.013Z" transform="translate(-71.414 -348.385)"/>
            <path id="Pfad_956" data-name="Pfad 956" class="cls-4" d="M127.37,395.818v2.6a2.968,2.968,0,0,0,1.362-.34l24.237-14a.994.994,0,0,0,.6-.831v-2.56a1.035,1.035,0,0,1-.6.844l-24.237,13.943A2.969,2.969,0,0,1,127.37,395.818Z" transform="translate(-51.18 -336.702)"/>
            <path id="Pfad_957" data-name="Pfad 957" class="cls-17" d="M127.37,395.818v2.6a2.968,2.968,0,0,0,1.362-.34l24.237-14a.994.994,0,0,0,.6-.831v-2.56a1.035,1.035,0,0,1-.6.844l-24.237,13.943A2.969,2.969,0,0,1,127.37,395.818Z" transform="translate(-51.18 -336.702)"/>
            <path id="Pfad_958" data-name="Pfad 958" class="cls-13" d="M124.155,372.76l-2.723,1.593a.592.592,0,0,0-.082.1l2.465,1.484,2.9-1.729Z" transform="translate(-53.357 -339.57)"/>
            <path id="Pfad_959" data-name="Pfad 959" class="cls-13" d="M126.577,374.17l-2.723,1.607a.1.1,0,0,0,0,.1h0l2.437,1.362,2.9-1.716Z" transform="translate(-52.456 -339.06)"/>
            <path id="Pfad_960" data-name="Pfad 960" class="cls-13" d="M120.031,370.38l-2.723,1.607s-.068,0-.068.1l4.085,2.383,2.9-1.716Z" transform="translate(-54.843 -340.431)"/>
            <path id="Pfad_961" data-name="Pfad 961" class="cls-13" d="M117.576,369l-2.723,1.607a.109.109,0,0,0,0,.1l2.451,1.471,2.791-1.811Z" transform="translate(-55.711 -340.93)"/>
            <path id="Pfad_962" data-name="Pfad 962" class="cls-13" d="M84.89,362.982l2.451,1.471,2.9-1.716-2.478-1.457-2.723,1.607a.123.123,0,0,0-.15.1Z" transform="translate(-66.543 -343.721)"/>
            <path id="Pfad_963" data-name="Pfad 963" class="cls-13" d="M115.155,367.56l-2.723,1.593s-.082.082-.082.109l2.465,1.471,2.9-1.716Z" transform="translate(-56.612 -341.45)"/>
            <path id="Pfad_964" data-name="Pfad 964" class="cls-13" d="M123.879,375.807l-2.505-1.457-2.723,1.607v.1l2.465,1.471Z" transform="translate(-54.334 -338.995)"/>
            <path id="Pfad_965" data-name="Pfad 965" class="cls-13" d="M105.9,371.932l2.465,1.471,2.887-1.716-2.492-1.457-2.723,1.607S105.9,371.891,105.9,371.932Z" transform="translate(-58.945 -340.485)"/>
            <path id="Pfad_966" data-name="Pfad 966" class="cls-13" d="M121,377.452l2.451,1.471,2.9-1.716-2.519-1.457-2.723,1.607a.109.109,0,0,0-.109.1Z" transform="translate(-53.484 -338.489)"/>
            <path id="Pfad_967" data-name="Pfad 967" class="cls-13" d="M103.46,370.522l2.451,1.471,2.9-1.716-2.519-1.457-2.723,1.593S103.46,370.495,103.46,370.522Z" transform="translate(-59.827 -340.995)"/>
            <path id="Pfad_968" data-name="Pfad 968" class="cls-13" d="M101,369.112l2.451,1.471,2.9-1.716-2.519-1.457-2.723,1.607A.109.109,0,0,0,101,369.112Z" transform="translate(-60.717 -341.505)"/>
            <path id="Pfad_969" data-name="Pfad 969" class="cls-13" d="M110.79,374.951l5.256,3.091,6.658-3.894-2.873-1.648-3.513,2.042a.463.463,0,0,1-.245,0,.4.4,0,0,1-.231,0l-2.219-1.28-2.723,1.593S110.79,374.924,110.79,374.951Z" transform="translate(-57.176 -339.664)"/>
            <path id="Pfad_970" data-name="Pfad 970" class="cls-13" d="M110.243,364.74l-2.723,1.607v.1l2.451,1.471,2.9-1.716Z" transform="translate(-58.359 -342.47)"/>
            <path id="Pfad_971" data-name="Pfad 971" class="cls-13" d="M108.35,373.342l2.451,1.471,2.9-1.716-2.519-1.457-2.723,1.593C108.35,373.274,108.35,373.315,108.35,373.342Z" transform="translate(-58.058 -339.975)"/>
            <path id="Pfad_972" data-name="Pfad 972" class="cls-13" d="M86,357.272l2.451,1.471,3-1.716-2.519-1.457L86.2,357.163a.123.123,0,0,0-.2.109Z" transform="translate(-66.142 -345.786)"/>
            <path id="Pfad_973" data-name="Pfad 973" class="cls-13" d="M90.726,353.46,88,355.067a.109.109,0,0,0,0,.1h0l2.437,1.362,2.9-1.716Z" transform="translate(-65.421 -346.549)"/>
            <path id="Pfad_974" data-name="Pfad 974" class="cls-13" d="M83.92,359.228v.068l2.437,1.362,2.9-1.729-2.505-1.389-2.723,1.607A.109.109,0,0,0,83.92,359.228Z" transform="translate(-66.893 -345.074)"/>
            <path id="Pfad_975" data-name="Pfad 975" class="cls-13" d="M80,360.162l2.465,1.471,2.887-1.716-2.519-1.457-2.723,1.593a.15.15,0,0,0-.109.109Z" transform="translate(-68.311 -344.741)"/>
            <path id="Pfad_976" data-name="Pfad 976" class="cls-13" d="M93.143,354.87l-2.723,1.607v.1l2.465,1.471,2.887-1.716Z" transform="translate(-64.543 -346.04)"/>
            <path id="Pfad_977" data-name="Pfad 977" class="cls-13" d="M82.44,361.572l2.465,1.471,2.887-1.716-2.505-1.457-2.723,1.607a.136.136,0,0,0-.123.1Z" transform="translate(-67.429 -344.231)"/>
            <path id="Pfad_978" data-name="Pfad 978" class="cls-13" d="M100.473,359.1l-2.723,1.607v.1l2.451,1.471,2.9-1.716Z" transform="translate(-61.892 -344.51)"/>
            <path id="Pfad_979" data-name="Pfad 979" class="cls-13" d="M102.926,360.51,100.2,362.1a.136.136,0,0,0,0,.109l2.451,1.471,2.9-1.716Z" transform="translate(-61.009 -344)"/>
            <path id="Pfad_980" data-name="Pfad 980" class="cls-13" d="M105.385,361.92l-2.723,1.593s-.082.082-.082.109l2.465,1.471,2.887-1.716Z" transform="translate(-60.145 -343.49)"/>
            <path id="Pfad_981" data-name="Pfad 981" class="cls-13" d="M98.037,357.69l-2.723,1.593a.109.109,0,0,0,0,.109l2.3,1.443,2.9-1.716Z" transform="translate(-62.778 -345.02)"/>
            <path id="Pfad_982" data-name="Pfad 982" class="cls-13" d="M107.806,363.33l-2.723,1.607a.123.123,0,0,0,0,.1l2.451,1.471,2.9-1.716Z" transform="translate(-59.244 -342.98)"/>
            <path id="Pfad_983" data-name="Pfad 983" class="cls-13" d="M95.593,356.28l-2.723,1.607v.1l2.465,1.471,2.887-1.716Z" transform="translate(-63.657 -345.53)"/>
            <path id="Pfad_984" data-name="Pfad 984" class="cls-13" d="M112.726,366.15,110,367.757a.136.136,0,0,0,0,.1l2.465,1.471,2.887-1.716Z" transform="translate(-57.464 -341.96)"/>
            <path id="Pfad_985" data-name="Pfad 985" class="cls-13" d="M113.295,369.68l-2.723,1.593a.123.123,0,0,0-.082.1v.109l2.451,1.362,2.887-1.716Z" transform="translate(-57.285 -340.684)"/>
            <path id="Pfad_986" data-name="Pfad 986" class="cls-13" d="M131.991,377.29l-2.723,1.593c-.068,0-.068.082-.068.1l2.451,1.471,2.9-1.716Z" transform="translate(-50.518 -337.932)"/>
            <path id="Pfad_987" data-name="Pfad 987" class="cls-13" d="M134.416,378.7l-2.723,1.593a.136.136,0,0,0,0,.1l2.451,1.471,2.9-1.716Z" transform="translate(-49.62 -337.422)"/>
            <path id="Pfad_988" data-name="Pfad 988" class="cls-13" d="M110.825,368.27l-2.723,1.593a.15.15,0,0,0,0,.1l2.465,1.471,2.887-1.716Z" transform="translate(-58.151 -341.194)"/>
            <path id="Pfad_989" data-name="Pfad 989" class="cls-13" d="M136.885,380.11l-2.723,1.593c-.068,0-.082.082-.082.1l2.465,1.471,2.887-1.716Z" transform="translate(-48.753 -336.912)"/>
            <path id="Pfad_990" data-name="Pfad 990" class="cls-13" d="M112.91,372.778v.068l2.437,1.362,2.9-1.716-2.492-1.4-2.723,1.593A.748.748,0,0,0,112.91,372.778Z" transform="translate(-56.409 -340.174)"/>
            <path id="Pfad_991" data-name="Pfad 991" class="cls-13" d="M129.235,378.88l-2.723,1.593c-.082,0-.082.082-.082.109l2.451,1.471,2.9-1.716Z" transform="translate(-51.52 -337.357)"/>
            <path id="Pfad_992" data-name="Pfad 992" class="cls-13" d="M134.125,381.7l-2.723,1.593s-.082.082-.082.109l2.424,1.43,2.887-1.716Z" transform="translate(-49.752 -336.337)"/>
            <path id="Pfad_993" data-name="Pfad 993" class="cls-13" d="M128.85,381.992l2.451,1.471,2.9-1.716-2.519-1.457-2.723,1.607S128.85,381.951,128.85,381.992Z" transform="translate(-50.645 -336.847)"/>
            <path id="Pfad_994" data-name="Pfad 994" class="cls-13" d="M131,386.893a.177.177,0,0,0,0,.1v.068l2.451,1.362,6.658-3.881-2.519-1.457Z" transform="translate(-49.869 -335.838)"/>
            <path id="Pfad_995" data-name="Pfad 995" class="cls-13" d="M108.386,366.86l-2.723,1.593a.123.123,0,0,0,0,.1h0l2.437,1.362,2.9-1.716Z" transform="translate(-59.034 -341.703)"/>
            <path id="Pfad_996" data-name="Pfad 996" class="cls-13" d="M126.09,383.564h0l2.437,1.362,2.887-1.539-2.519-1.457-2.723,1.607a.109.109,0,0,0-.082.027Z" transform="translate(-51.643 -336.254)"/>
            <path id="Pfad_997" data-name="Pfad 997" class="cls-13" d="M128.53,384.992l2.465,1.471,2.887-1.716-2.519-1.457-2.723,1.593C128.544,384.924,128.53,384.965,128.53,384.992Z" transform="translate(-50.761 -335.762)"/>
            <path id="Pfad_998" data-name="Pfad 998" class="cls-13" d="M96.195,359.8l-2.723,1.593s-.082.082-.082.109l2.465,1.471,2.9-1.716Z" transform="translate(-63.469 -344.257)"/>
            <path id="Pfad_999" data-name="Pfad 999" class="cls-13" d="M91.3,357l-2.723,1.593c-.068,0-.082.082-.082.109h0l2.437,1.362,2.9-1.716Z" transform="translate(-65.237 -345.269)"/>
            <path id="Pfad_1000" data-name="Pfad 1000" class="cls-13" d="M88.8,362.062l2.465,1.471,2.887-1.716-2.505-1.457-2.723,1.607a.109.109,0,0,0-.123.1Z" transform="translate(-65.129 -344.054)"/>
            <path id="Pfad_1001" data-name="Pfad 1001" class="cls-13" d="M86.36,360.62l2.465,1.484,2.887-1.743L89.206,359l-2.723,1.607A.1.1,0,0,0,86.36,360.62Z" transform="translate(-66.011 -344.546)"/>
            <path id="Pfad_1002" data-name="Pfad 1002" class="cls-13" d="M91.25,363.481h0l2.437,1.362,2.9-1.716-2.519-1.457-2.723,1.593Z" transform="translate(-64.243 -343.58)"/>
            <path id="Pfad_1003" data-name="Pfad 1003" class="cls-13" d="M105.943,365.44l-2.723,1.607v.163l2.451,1.362,2.9-1.716Z" transform="translate(-59.914 -342.217)"/>
            <path id="Pfad_1004" data-name="Pfad 1004" class="cls-13" d="M96.13,366.292l2.465,1.471,2.887-1.716-2.505-1.457-2.723,1.593S96.13,366.265,96.13,366.292Z" transform="translate(-62.478 -342.524)"/>
            <path id="Pfad_1005" data-name="Pfad 1005" class="cls-13" d="M93.69,364.882l2.451,1.471,2.9-1.716-2.519-1.457L93.8,364.787S93.69,364.841,93.69,364.882Z" transform="translate(-63.36 -343.034)"/>
            <path id="Pfad_1006" data-name="Pfad 1006" class="cls-13" d="M101.075,362.62l-2.723,1.607s-.082.068-.082.1l2.465,1.471,2.887-1.716Z" transform="translate(-61.704 -343.237)"/>
            <path id="Pfad_1007" data-name="Pfad 1007" class="cls-13" d="M93.745,358.39l-2.723,1.593s-.082.082-.082.109l2.465,1.471,2.887-1.716Z" transform="translate(-64.355 -344.767)"/>
            <path id="Pfad_1008" data-name="Pfad 1008" class="cls-13" d="M103.525,364l-2.723,1.607a.122.122,0,0,0-.082.1l2.465,1.471,2.887-1.716Z" transform="translate(-60.818 -342.738)"/>
            <path id="Pfad_1009" data-name="Pfad 1009" class="cls-13" d="M98.616,361.21,95.893,362.8a.136.136,0,0,0,0,.109h0l2.437,1.362,2.9-1.716Z" transform="translate(-62.568 -343.747)"/>
            <path id="Pfad_1010" data-name="Pfad 1010" class="cls-13" d="M98.57,367.7l2.465,1.471,2.9-1.716L101.416,366l-2.723,1.593a.136.136,0,0,0-.123.109Z" transform="translate(-61.595 -342.014)"/>
            <path id="Pfad_1011" data-name="Pfad 1011" class="cls-13" d="M129.031,375.58l-2.723,1.607s-.068,0-.068.1l2.451,1.471,2.9-1.716Z" transform="translate(-51.589 -338.55)"/>
            <path id="Pfad_1012" data-name="Pfad 1012" class="cls-13" d="M90.785,353.507l-2.519-1.457-2.723,1.607a.109.109,0,0,0,0,.1h0l2.451,1.362Z" transform="translate(-66.31 -347.059)"/>
            <path id="Pfad_1013" data-name="Pfad 1013" class="cls-13" d="M89.248,355.805,85.5,353.64l-2.723,1.607v.1h0l3.676,2.124Z" transform="translate(-67.306 -346.484)"/>
            <path id="Pfad_1014" data-name="Pfad 1014" class="cls-13" d="M94.653,351.867l-3.036-1.757-2.723,1.607a.1.1,0,0,0,0,.1l2.982,1.77Z" transform="translate(-65.099 -347.761)"/>
            <path id="Pfad_1015" data-name="Pfad 1015" class="cls-13" d="M83.041,358.587,80,356.83l-2.723,1.593s-.082.082-.082.109l2.982,1.77Z" transform="translate(-69.324 -345.331)"/>
            <path id="Pfad_1016" data-name="Pfad 1016" class="cls-13" d="M87.369,357.9l-4.643-2.655L80,356.833a.136.136,0,0,0,0,.1h0l4.548,2.628Z" transform="translate(-68.313 -345.906)"/>
            <path id="Pfad_1017" data-name="Pfad 1017" class="cls-13" d="M92.7,354.062l2.451,1.471,2.9-1.716-2.519-1.457-2.723,1.593A.109.109,0,0,0,92.7,354.062Z" transform="translate(-63.718 -346.947)"/>
            <path id="Pfad_1018" data-name="Pfad 1018" class="cls-13" d="M77.235,358.43l-2.723,1.593a.085.085,0,0,0-.082.1l3.69,2.179,2.859-1.729Z" transform="translate(-70.325 -344.752)"/>
            <path id="Pfad_1019" data-name="Pfad 1019" class="cls-13" d="M95.14,355.452l2.451,1.471,2.9-1.716-2.519-1.457-2.723,1.607a.136.136,0,0,0-.109.1Z" transform="translate(-62.836 -346.445)"/>
            <path id="Pfad_1020" data-name="Pfad 1020" class="cls-13" d="M106,361.729v.068l2.451,1.362,2.887-1.716L108.805,360l-2.723,1.593a.136.136,0,0,0-.082.136Z" transform="translate(-58.908 -344.184)"/>
            <path id="Pfad_1021" data-name="Pfad 1021" class="cls-13" d="M108.42,363.128l2.451,1.471,2.9-1.716-2.519-1.443-2.723,1.593S108.42,363.115,108.42,363.128Z" transform="translate(-58.033 -343.664)"/>
            <path id="Pfad_1022" data-name="Pfad 1022" class="cls-13" d="M103.53,360.319v.068l2.451,1.362,2.887-1.716-2.519-1.443-2.723,1.593A.123.123,0,0,0,103.53,360.319Z" transform="translate(-59.802 -344.694)"/>
            <path id="Pfad_1023" data-name="Pfad 1023" class="cls-13" d="M100.016,358.321h0l2.451,1.362,2.9-1.716-2.519-1.457-2.723,1.607a.116.116,0,1,0-.109.2Z" transform="translate(-61.094 -345.447)"/>
            <path id="Pfad_1024" data-name="Pfad 1024" class="cls-13" d="M97.58,356.882l2.465,1.471,2.887-1.716-2.505-1.457L97.7,356.787S97.58,356.841,97.58,356.882Z" transform="translate(-61.953 -345.928)"/>
            <path id="Pfad_1025" data-name="Pfad 1025" class="cls-13" d="M125.816,386.48l-2.723,1.607a.122.122,0,0,0,0,.1h0l2.437,1.362,2.9-1.716Z" transform="translate(-52.73 -334.608)"/>
            <path id="Pfad_1026" data-name="Pfad 1026" class="cls-13" d="M113.115,379.13l-2.723,1.593s-.082.082-.082.109l2.451,1.471,2.9-1.716Z" transform="translate(-57.35 -337.266)"/>
            <path id="Pfad_1027" data-name="Pfad 1027" class="cls-13" d="M120.955,383.66l-2.723,1.593a.15.15,0,0,0-.082.109h0l5.773,3.336,2.9-1.716Z" transform="translate(-54.514 -335.628)"/>
            <path id="Pfad_1028" data-name="Pfad 1028" class="cls-13" d="M115.555,380.54l-2.723,1.593s-.082.082-.082.109l2.465,1.471L118.1,382Z" transform="translate(-56.467 -336.756)"/>
            <path id="Pfad_1029" data-name="Pfad 1029" class="cls-13" d="M117.995,382l-2.723,1.593c-.082,0-.082.082-.082.109l2.451,1.471,2.873-1.811Z" transform="translate(-55.585 -336.228)"/>
            <path id="Pfad_1030" data-name="Pfad 1030" class="cls-13" d="M110.86,364.549v.068l2.437,1.362,2.9-1.716-2.519-1.443-2.723,1.593A.123.123,0,0,0,110.86,364.549Z" transform="translate(-57.151 -343.165)"/>
            <path id="Pfad_1031" data-name="Pfad 1031" class="cls-13" d="M134.547,387.757l-2.505-1.457-6.549,3.772a.177.177,0,0,0,0,.1h0l2.451,1.362Z" transform="translate(-51.862 -334.673)"/>
            <path id="Pfad_1032" data-name="Pfad 1032" class="cls-13" d="M83.415,362l-2.723,1.593a.593.593,0,0,0-.082.1l2.982,1.784,2.9-1.716Z" transform="translate(-68.09 -343.461)"/>
            <path id="Pfad_1033" data-name="Pfad 1033" class="cls-13" d="M86.235,363.62l-2.723,1.593s-.082.082-.082.109h0l18.9,10.893,2.9-1.729Z" transform="translate(-67.071 -342.875)"/>
            <path id="Pfad_1034" data-name="Pfad 1034" class="cls-13" d="M87.33,364.392l2.451,1.471,2.9-1.716-2.519-1.457L87.439,364.3a.136.136,0,0,0-.109.1Z" transform="translate(-65.66 -343.212)"/>
            <path id="Pfad_1035" data-name="Pfad 1035" class="cls-13" d="M80.585,360.36l-2.723,1.593s-.082.068-.082.1l2.982,1.77,2.9-1.716Z" transform="translate(-69.114 -344.054)"/>
            <path id="Pfad_1036" data-name="Pfad 1036" class="cls-13" d="M100.726,372,98,373.593a.136.136,0,0,0,0,.109h0l2.968,1.716,2.9-1.716Z" transform="translate(-61.805 -339.845)"/>
            <path id="Pfad_1037" data-name="Pfad 1037" class="cls-13" d="M106.406,375.27l-2.723,1.607a.109.109,0,0,0,0,.1h0l2.982,1.716,2.887-1.716Z" transform="translate(-59.75 -338.662)"/>
            <path id="Pfad_1038" data-name="Pfad 1038" class="cls-13" d="M103.576,373.64l-2.723,1.607a.109.109,0,0,0,0,.1l2.982,1.77,2.887-1.716Z" transform="translate(-60.774 -339.252)"/>
            <path id="Pfad_1039" data-name="Pfad 1039" class="cls-13" d="M109.255,376.91l-2.723,1.593a.593.593,0,0,0-.082.1v.068l3.676,2.111,2.9-1.716Z" transform="translate(-58.746 -338.069)"/>
            <path id="Pfad_1040" data-name="Pfad 1040" class="cls-13" d="M123.45,378.9h0l2.437,1.362,2.9-1.716-2.519-1.457-2.723,1.607A.97.97,0,0,0,123.45,378.9Z" transform="translate(-52.598 -338.004)"/>
            <path id="Pfad_1041" data-name="Pfad 1041" class="cls-13" d="M115.48,380.634h0L117.931,382l2.9-1.716L118.326,379l-2.723,1.593A.136.136,0,0,0,115.48,380.634Z" transform="translate(-55.48 -337.313)"/>
            <path id="Pfad_1042" data-name="Pfad 1042" class="cls-13" d="M106.871,375.661l6.808,4,2.9-1.716L109.771,374l-2.723,1.607a.093.093,0,0,0-.177.054Z" transform="translate(-58.595 -339.121)"/>
            <path id="Pfad_1043" data-name="Pfad 1043" class="cls-13" d="M120.88,383.758v.068l2.451,1.362,2.9-1.729-2.465-1.389-2.723,1.607a.1.1,0,0,0-.163.082Z" transform="translate(-53.527 -336.203)"/>
            <path id="Pfad_1044" data-name="Pfad 1044" class="cls-13" d="M123.33,385.2h0l2.437,1.362,2.9-1.729-2.519-1.443-2.723,1.593S123.33,385.187,123.33,385.2Z" transform="translate(-52.641 -335.726)"/>
            <path id="Pfad_1045" data-name="Pfad 1045" class="cls-13" d="M104.43,374.258l2.451,1.471,2.9-1.716-2.519-1.443-2.723,1.593A.136.136,0,0,0,104.43,374.258Z" transform="translate(-59.476 -339.639)"/>
            <path id="Pfad_1046" data-name="Pfad 1046" class="cls-13" d="M123.65,382.2h0l2.451,1.362,2.887-1.716-2.505-1.457-2.723,1.593C123.65,382.133,123.65,382.174,123.65,382.2Z" transform="translate(-52.525 -336.811)"/>
            <path id="Pfad_1047" data-name="Pfad 1047" class="cls-13" d="M92.21,367.208l2.437,1.471,2.887-1.716-2.505-1.443-2.723,1.593A.136.136,0,0,0,92.21,367.208Z" transform="translate(-63.895 -342.188)"/>
            <path id="Pfad_1048" data-name="Pfad 1048" class="cls-13" d="M102,372.848l2.465,1.471,2.9-1.716-2.519-1.443-2.723,1.607S102,372.808,102,372.848Z" transform="translate(-60.355 -340.148)"/>
            <path id="Pfad_1049" data-name="Pfad 1049" class="cls-13" d="M89.775,365.827h0l2.451,1.362,2.887-1.716-2.505-1.443-2.723,1.593a.136.136,0,0,0-.109.2Z" transform="translate(-64.783 -342.727)"/>
            <path id="Pfad_1050" data-name="Pfad 1050" class="cls-13" d="M94.66,368.615l2.451,1.471,2.9-1.7-2.519-1.443-2.723,1.607a.1.1,0,0,0-.109.068Z" transform="translate(-63.009 -341.675)"/>
            <path id="Pfad_1051" data-name="Pfad 1051" class="cls-13" d="M97.1,370.028v.068l2.451,1.362,2.859-1.675-2.519-1.443-2.723,1.593a.123.123,0,0,0-.068.1Z" transform="translate(-62.127 -341.168)"/>
            <path id="Pfad_1052" data-name="Pfad 1052" class="cls-13" d="M99.545,371.477h0L102,372.839l2.887-1.716-2.505-1.443-2.723,1.593a.136.136,0,0,0-.109.2Z" transform="translate(-61.249 -340.684)"/>
            <path id="Pfad_1053" data-name="Pfad 1053" class="cls-13" d="M116.81,367.982l2.451,1.471,2.9-1.716-2.519-1.457-2.723,1.593A.109.109,0,0,0,116.81,367.982Z" transform="translate(-54.999 -341.913)"/>
            <path id="Pfad_1054" data-name="Pfad 1054" class="cls-13" d="M125.77,386.578h0l2.437,1.362,2.914-1.552L128.6,384.93l-2.723,1.607S125.77,386.537,125.77,386.578Z" transform="translate(-51.759 -335.169)"/>
            <path id="Pfad_1055" data-name="Pfad 1055" class="cls-13" d="M121.69,370.8l2.465,1.471,2.887-1.716-2.505-1.457-2.723,1.593S121.69,370.775,121.69,370.8Z" transform="translate(-53.234 -340.893)"/>
            <path id="Pfad_1056" data-name="Pfad 1056" class="cls-13" d="M127.12,373.932l2.451,1.471,2.9-1.716-2.519-1.457-2.723,1.607a.109.109,0,0,0-.109.1Z" transform="translate(-51.27 -339.762)"/>
            <path id="Pfad_1057" data-name="Pfad 1057" class="cls-13" d="M124.68,372.522l2.451,1.471,2.9-1.716-2.519-1.457-2.723,1.607a.1.1,0,0,0-.109.1Z" transform="translate(-52.153 -340.271)"/>
            <path id="Pfad_1058" data-name="Pfad 1058" class="cls-13" d="M114.36,366.572l2.465,1.471,2.9-1.716-2.519-1.457-2.723,1.593S114.36,366.545,114.36,366.572Z" transform="translate(-55.885 -342.423)"/>
            <path id="Pfad_1059" data-name="Pfad 1059" class="cls-13" d="M119.25,369.421h0l2.437,1.362,2.9-1.716-2.519-1.457-2.723,1.593A1.72,1.72,0,0,0,119.25,369.421Z" transform="translate(-54.117 -341.432)"/>
            <path id="Pfad_1060" data-name="Pfad 1060" class="cls-13" d="M129.56,375.342l2.465,1.471,2.887-1.716-2.519-1.457-2.723,1.607C129.574,375.274,129.56,375.315,129.56,375.342Z" transform="translate(-50.388 -339.252)"/>
            <path id="Pfad_1061" data-name="Pfad 1061" class="cls-13" d="M140.55,380.662l2.465,1.471,1.511-.94-2.519-1.443-1.362.817S140.55,380.621,140.55,380.662Z" transform="translate(-46.414 -337.042)"/>
            <path id="Pfad_1062" data-name="Pfad 1062" class="cls-13" d="M136.49,383.208l2.465,1.471,2.9-1.716-2.519-1.443-2.723,1.593C136.5,383.154,136.49,383.195,136.49,383.208Z" transform="translate(-47.882 -336.402)"/>
            <path id="Pfad_1063" data-name="Pfad 1063" class="cls-13" d="M133.251,376.461h0l2.437,1.362,1.511-.94-2.519-1.443-1.362.8a.114.114,0,0,0-.068.218Z" transform="translate(-49.082 -338.601)"/>
            <path id="Pfad_1064" data-name="Pfad 1064" class="cls-13" d="M135.676,377.871h0l2.437,1.362,1.511-.94-2.505-1.443-1.362.817a.136.136,0,0,0-.082.2Z" transform="translate(-48.184 -338.091)"/>
            <path id="Pfad_1065" data-name="Pfad 1065" class="cls-13" d="M138.11,379.242l2.465,1.471,1.511-.94-2.519-1.443-1.362.817Z" transform="translate(-47.296 -337.555)"/>
          </g>
        </g>
      </g>
    </g>
  </g>
</svg>
